<svg width="33" height="34" viewBox="0 0 33 34" fill="none" xmlns="http://www.w3.org/2000/svg">
<g filter="url(#filter0_d_1442_10864)">
<g clip-path="url(#clip0_1442_10864)">
<rect x="4" y="3.31982" width="25" height="25.36" rx="12.5" fill="white"/>
<path d="M23.567 15.8975C23.567 18.5878 24.6458 21.1499 26.5987 23.1226L27.5 22.3284C25.7656 20.5734 24.8097 18.2931 24.8097 15.8975C24.8097 15.3979 24.8507 14.9111 24.9327 14.4243H24.9463C25.0829 13.5788 25.3424 12.7589 25.7111 12.0031C25.752 11.9262 25.7793 11.8494 25.8203 11.7725C25.834 11.7469 25.8476 11.7341 25.8613 11.7085C26.189 11.0936 26.5987 10.5043 27.0766 9.96623C27.0903 9.95342 27.0903 9.94061 27.104 9.94061C27.1723 9.86374 27.2542 9.78688 27.3225 9.69721C27.3498 9.67158 27.3771 9.63315 27.4044 9.60753L27.3908 9.62034L26.5304 8.77484C23.8811 11.1192 20.4398 12.4643 16.7936 12.5411V12.5283C16.6707 12.5283 16.5615 12.5411 16.4385 12.5411H16.4249C15.4553 12.5411 14.4721 12.4515 13.5298 12.2721H13.5161C13.4069 11.875 13.284 11.4907 13.1338 11.1064C14.1989 11.3498 15.2914 11.4779 16.4112 11.4779C19.8799 11.4779 23.171 10.2481 25.6974 8.03183L24.8507 7.18633C22.5565 9.2104 19.5658 10.3249 16.4112 10.3249C16.3293 10.3249 16.2473 10.3249 16.1654 10.3249V10.2993C14.9227 10.2737 13.7073 10.0815 12.5465 9.71001C12.5465 9.72282 12.5602 9.73564 12.5602 9.74845C12.5465 9.74845 12.5329 9.74845 12.5329 9.73564C12.3144 9.30008 12.0686 8.86452 11.8091 8.44177C13.243 9.04387 14.8135 9.37694 16.3976 9.37694C19.2653 9.37694 21.9966 8.36491 24.0996 6.53299L23.253 5.6875C21.3957 7.32725 18.965 8.22399 16.4112 8.22399C16.1381 8.22399 15.865 8.21118 15.5919 8.18556V8.17275C13.3933 8.00621 11.3312 7.17352 9.67877 5.76436C9.71974 5.8028 9.76071 5.84123 9.78802 5.87966C9.74705 5.84123 9.70608 5.81561 9.66512 5.77717L8.77747 6.57143C11.3858 9.14635 12.8197 12.5155 12.8197 16.0641C12.8197 16.1922 12.8197 16.3075 12.8197 16.4355C12.8197 16.474 12.8197 16.4996 12.8197 16.538C12.8197 16.6277 12.806 16.7174 12.806 16.8198C12.806 16.8583 12.806 16.8839 12.7924 16.9224C12.7924 17.0121 12.7787 17.1017 12.7787 17.1914C12.7787 17.2298 12.7787 17.2554 12.7651 17.2939C12.7514 17.3835 12.7514 17.4732 12.7377 17.5629C12.7377 17.6013 12.7241 17.627 12.7241 17.6654C12.7104 17.7551 12.6968 17.8447 12.6831 17.9472C12.6831 17.9729 12.6695 18.0113 12.6695 18.0369C12.6558 18.1266 12.6422 18.229 12.6285 18.3187C12.6285 18.3443 12.6149 18.37 12.6149 18.3956C12.5875 18.5109 12.5739 18.6262 12.5465 18.7286C12.5465 18.7415 12.5465 18.7415 12.5465 18.7543C12.5465 18.7543 12.5465 18.7543 12.5465 18.7671C12.1232 18.8696 11.7135 18.9849 11.3038 19.1258C11.577 18.1266 11.7135 17.1017 11.7135 16.0512C11.7135 12.7974 10.4025 9.71001 8.04004 7.34006L7.13873 8.13432C9.28274 10.2993 10.4708 13.1048 10.4708 16.0641C10.4708 16.2818 10.4572 16.4868 10.4435 16.6918L10.4162 16.7046C10.3479 17.7294 10.1567 18.7415 9.81533 19.7023C9.36468 19.8944 8.92768 20.1122 8.50435 20.3556C9.13252 19.0233 9.46028 17.5757 9.46028 16.0769C9.46028 13.3867 8.38144 10.8245 6.42861 8.85171L5.5 9.64596C7.23433 11.401 8.19026 13.6813 8.19026 16.0769C8.19026 16.4996 8.16294 16.9224 8.10832 17.3323H8.09466C7.82154 19.2154 7.00217 20.9705 5.62291 22.3924C5.62291 22.3924 5.62291 22.3924 5.62291 22.4053L6.48324 23.2508C9.11887 20.8936 12.5465 19.5613 16.1654 19.4717C16.302 19.4717 16.4522 19.4589 16.5751 19.4589H16.5888C17.5583 19.4589 18.5279 19.5485 19.4702 19.7279H19.4839C19.5931 20.125 19.716 20.5093 19.8662 20.8936C19.7024 20.8552 19.5385 20.8168 19.3746 20.7911C19.0059 20.7143 18.6508 20.663 18.2821 20.6246C17.8042 20.5734 17.3262 20.535 16.8482 20.535C16.8072 20.535 16.7527 20.535 16.7117 20.535C16.6844 20.535 16.6434 20.535 16.6161 20.535C13.1474 20.535 9.8563 21.7648 7.32992 23.981L8.1766 24.8265C10.4572 22.7896 13.4478 21.6751 16.6024 21.6751C16.8209 21.6751 17.0531 21.6879 17.2716 21.6879L17.2852 21.7135C18.3641 21.7648 19.4292 21.9441 20.4535 22.2644C20.4535 22.2516 20.4535 22.2516 20.4398 22.2387C20.4535 22.2387 20.4535 22.2387 20.4671 22.2516C20.6856 22.6871 20.9314 23.1099 21.1909 23.5326C19.7706 22.9433 18.2139 22.623 16.6297 22.623C13.762 22.623 11.0307 23.6351 8.92768 25.467L9.77437 26.3125C11.6453 24.6855 14.076 23.7888 16.6297 23.7888C17.2306 23.7888 17.8178 23.84 18.4051 23.9298V23.9425C20.2486 24.25 21.9147 24.993 23.3212 26.1972C23.3076 26.1844 23.2803 26.1588 23.2666 26.146C23.2939 26.1716 23.3076 26.1844 23.3349 26.1972L24.2362 25.3902C21.6279 22.8152 20.194 19.446 20.194 15.8975C20.194 14.988 20.2896 14.0912 20.4808 13.2201C20.9041 13.1177 21.3001 13.0024 21.7098 12.8742C21.4776 13.7326 21.3684 14.6165 21.3411 15.526C21.3411 15.6029 21.3411 15.6798 21.3411 15.7566C21.3411 15.8078 21.3411 15.8591 21.3411 15.9104C21.3411 19.1642 22.6521 22.2516 25.0146 24.6215L25.9159 23.8273C23.7582 21.6751 22.5701 18.8696 22.5701 15.9104C22.5701 15.7053 22.5838 15.5004 22.5838 15.2955H22.5974C22.6521 14.2834 22.8433 13.2842 23.1847 12.3234V12.3106C23.649 12.1056 24.1133 11.875 24.564 11.6316C23.9084 12.9639 23.567 14.4115 23.567 15.8975ZM16.5888 18.2931C16.4112 18.2931 16.2337 18.2931 16.0562 18.3059C15.428 18.3315 14.8135 18.3827 14.1989 18.4725V18.4596C14.076 18.4725 13.9532 18.498 13.8302 18.5109C13.9395 17.9088 13.9941 17.3067 14.0214 16.6918C14.0214 16.679 14.0214 16.6661 14.0214 16.6533C14.0351 16.4484 14.0351 16.2562 14.0351 16.0512C14.0351 15.9744 14.0351 15.9104 14.0351 15.8335C14.0214 15.052 13.9395 14.2577 13.8029 13.502C14.0214 13.5275 14.2399 13.566 14.4448 13.5916C14.6769 13.6173 14.9091 13.6428 15.1412 13.6557C15.5646 13.6941 15.9879 13.7069 16.4112 13.7069C16.6297 13.7069 16.8619 13.7069 17.0804 13.6941C17.7768 13.6685 18.4597 13.5916 19.1288 13.4891C19.0605 13.8863 19.0059 14.2834 18.9786 14.6933C18.9513 15.1033 18.924 15.5004 18.924 15.9104C18.9103 16.7686 19.0059 17.627 19.1561 18.4725C18.3367 18.3572 17.4628 18.2931 16.5888 18.2931Z" fill="#4460F1"/>
</g>
<rect x="4.5" y="3.81982" width="24" height="24.36" rx="12" stroke="white"/>
</g>
<defs>
<filter id="filter0_d_1442_10864" x="0" y="0.319824" width="33" height="33.3599" filterUnits="userSpaceOnUse" color-interpolation-filters="sRGB">
<feFlood flood-opacity="0" result="BackgroundImageFix"/>
<feColorMatrix in="SourceAlpha" type="matrix" values="0 0 0 0 0 0 0 0 0 0 0 0 0 0 0 0 0 0 127 0" result="hardAlpha"/>
<feOffset dy="1"/>
<feGaussianBlur stdDeviation="2"/>
<feComposite in2="hardAlpha" operator="out"/>
<feColorMatrix type="matrix" values="0 0 0 0 0 0 0 0 0 0 0 0 0 0 0 0 0 0 0.43 0"/>
<feBlend mode="normal" in2="BackgroundImageFix" result="effect1_dropShadow_1442_10864"/>
<feBlend mode="normal" in="SourceGraphic" in2="effect1_dropShadow_1442_10864" result="shape"/>
</filter>
<clipPath id="clip0_1442_10864">
<rect x="4" y="3.31982" width="25" height="25.36" rx="12.5" fill="white"/>
</clipPath>
</defs>
</svg>
