<svg width="33" height="34" viewBox="0 0 33 34" fill="none" xmlns="http://www.w3.org/2000/svg">
<g filter="url(#filter0_d_1478_5768)">
<g clip-path="url(#clip0_1478_5768)">
<rect x="4" y="3.72021" width="25" height="24.5592" rx="12.2796" fill="#FBFBFB"/>
<g clip-path="url(#clip1_1478_5768)">
<path d="M16.5 25.7997C15.1448 25.7997 13.8698 25.542 12.675 25.0267C11.4801 24.5112 10.4433 23.814 9.56445 22.9352C8.68562 22.0564 7.98845 21.0195 7.47295 19.8247C6.95762 18.6299 6.69995 17.3549 6.69995 15.9997C6.69995 14.6574 6.95762 13.3855 7.47295 12.1842C7.98845 10.983 8.68562 9.94304 9.56445 9.06421C10.4433 8.18537 11.4801 7.48821 12.675 6.97271C13.8698 6.45737 15.1448 6.19971 16.5 6.19971C17.8423 6.19971 19.1141 6.45737 20.3155 6.97271C21.5166 7.48821 22.5566 8.18537 23.4355 9.06421C24.3143 9.94304 25.0115 10.983 25.527 12.1842C26.0423 13.3855 26.3 14.6574 26.3 15.9997C26.3 17.3549 26.0423 18.6299 25.527 19.8247C25.0115 21.0195 24.3143 22.0564 23.4355 22.9352C22.5566 23.814 21.5166 24.5112 20.3155 25.0267C19.1141 25.542 17.8423 25.7997 16.5 25.7997ZM16.5 24.1325C17.0538 23.3953 17.5128 22.659 17.877 21.9237C18.241 21.1885 18.5422 20.396 18.7807 19.546H14.2192C14.4834 20.4471 14.791 21.2654 15.1422 22.0007C15.4935 22.7359 15.9461 23.4465 16.5 24.1325ZM14.977 23.9325C14.527 23.4325 14.1176 22.786 13.749 21.993C13.3805 21.2 13.102 20.3843 12.9135 19.546H9.1787C9.71853 20.7395 10.5144 21.726 11.5662 22.5055C12.6182 23.285 13.7551 23.7606 14.977 23.9325ZM18.023 23.9325C19.2448 23.7606 20.3817 23.285 21.4337 22.5055C22.4855 21.726 23.2814 20.7395 23.8212 19.546H20.0865C19.834 20.3971 19.5234 21.2192 19.1547 22.0122C18.7862 22.8052 18.409 23.4453 18.023 23.9325ZM8.6712 18.296H12.6557C12.5967 17.919 12.5515 17.5359 12.5202 17.1467C12.4887 16.7577 12.473 16.3754 12.473 15.9997C12.473 15.624 12.4887 15.2417 12.5202 14.8527C12.5515 14.4635 12.5967 14.0805 12.6557 13.7035H8.6712C8.5622 14.0163 8.48137 14.3769 8.4287 14.7852C8.3762 15.1935 8.34995 15.5984 8.34995 15.9997C8.34995 16.401 8.3762 16.8059 8.4287 17.2142C8.48137 17.6225 8.5622 17.9831 8.6712 18.296ZM13.9307 18.296H19.0692C19.1449 17.919 19.1984 17.5423 19.2297 17.166C19.2612 16.7898 19.277 16.401 19.277 15.9997C19.277 15.5984 19.2612 15.2096 19.2297 14.8335C19.1984 14.4571 19.1449 14.0805 19.0692 13.7035H13.9307C13.855 14.0805 13.8015 14.4571 13.7702 14.8335C13.7387 15.2096 13.723 15.5984 13.723 15.9997C13.723 16.401 13.7387 16.7898 13.7702 17.166C13.8015 17.5423 13.855 17.919 13.9307 18.296ZM20.3442 18.296H24.3287C24.4377 17.9831 24.5185 17.6225 24.5712 17.2142C24.6237 16.8059 24.65 16.401 24.65 15.9997C24.65 15.5984 24.6237 15.1935 24.5712 14.7852C24.5185 14.3769 24.4377 14.0163 24.3287 13.7035H20.3442C20.4032 14.0805 20.4484 14.4635 20.4797 14.8527C20.5112 15.2417 20.527 15.624 20.527 15.9997C20.527 16.3754 20.5112 16.7577 20.4797 17.1467C20.4484 17.5359 20.4032 17.919 20.3442 18.296ZM20.0865 12.4535H23.8212C23.2685 11.2343 22.4823 10.2478 21.4625 9.49396C20.4426 8.74012 19.2961 8.25804 18.023 8.04771C18.473 8.61187 18.8759 9.28079 19.2317 10.0545C19.5875 10.8283 19.8725 11.628 20.0865 12.4535ZM14.2192 12.4535H18.7807C18.5165 11.5651 18.1992 10.7415 17.8287 9.98246C17.4582 9.22346 17.0153 8.47662 16.5 7.74196C15.9846 8.47662 15.5417 9.22346 15.1712 9.98246C14.8007 10.7415 14.4834 11.5651 14.2192 12.4535ZM9.1787 12.4535H12.9135C13.1275 11.628 13.4124 10.8283 13.7682 10.0545C14.124 9.28079 14.527 8.61187 14.977 8.04771C13.691 8.25804 12.5413 8.74329 11.528 9.50346C10.5145 10.2638 9.73137 11.2471 9.1787 12.4535Z" fill="black"/>
</g>
</g>
</g>
<defs>
<filter id="filter0_d_1478_5768" x="0" y="0.720215" width="33" height="32.5591" filterUnits="userSpaceOnUse" color-interpolation-filters="sRGB">
<feFlood flood-opacity="0" result="BackgroundImageFix"/>
<feColorMatrix in="SourceAlpha" type="matrix" values="0 0 0 0 0 0 0 0 0 0 0 0 0 0 0 0 0 0 127 0" result="hardAlpha"/>
<feOffset dy="1"/>
<feGaussianBlur stdDeviation="2"/>
<feComposite in2="hardAlpha" operator="out"/>
<feColorMatrix type="matrix" values="0 0 0 0 0 0 0 0 0 0 0 0 0 0 0 0 0 0 0.43 0"/>
<feBlend mode="normal" in2="BackgroundImageFix" result="effect1_dropShadow_1478_5768"/>
<feBlend mode="normal" in="SourceGraphic" in2="effect1_dropShadow_1478_5768" result="shape"/>
</filter>
<clipPath id="clip0_1478_5768">
<rect x="4" y="3.72021" width="25" height="24.5592" rx="12.2796" fill="white"/>
</clipPath>
<clipPath id="clip1_1478_5768">
<rect width="24" height="39.6" fill="white" transform="translate(4.5 -3.80029)"/>
</clipPath>
</defs>
</svg>
