<svg width="24" height="24" viewBox="0 0 68 68" fill="none" xmlns="http://www.w3.org/2000/svg">
<g id="icone/thumbs-up">
<path id="Vector" d="M19.8332 62.3333H11.3332C9.83028 62.3333 8.38894 61.7363 7.32623 60.6736C6.26353 59.6109 5.6665 58.1695 5.6665 56.6666V36.8333C5.6665 35.3304 6.26353 33.8891 7.32623 32.8264C8.38894 31.7636 9.83028 31.1666 11.3332 31.1666H19.8332M39.6665 25.5V14.1666C39.6665 11.9123 38.771 9.75028 37.1769 8.15622C35.5829 6.56216 33.4208 5.66663 31.1665 5.66663L19.8332 31.1666V62.3333H51.7932C53.1598 62.3487 54.4859 61.8698 55.5272 60.9846C56.5686 60.0995 57.2549 58.8679 57.4598 57.5166L61.3698 32.0166C61.4931 31.2045 61.4383 30.3752 61.2093 29.5863C60.9803 28.7975 60.5825 28.0678 60.0434 27.4479C59.5044 26.828 58.8371 26.3328 58.0876 25.9964C57.3382 25.6601 56.5246 25.4907 55.7032 25.5H39.6665Z" stroke="#05A660" stroke-width="5" stroke-linecap="round" stroke-linejoin="round"/>
</g>
</svg>
