<svg width="24" height="24" viewBox="0 0 68 68" fill="none" xmlns="http://www.w3.org/2000/svg">
<g id="icone/thumbs-down">
<path id="Vector" d="M48.1668 5.66667H55.7318C57.3353 5.63831 58.8935 6.19972 60.1104 7.24433C61.3274 8.28893 62.1184 9.74401 62.3334 11.3333V31.1667C62.1184 32.756 61.3274 34.2111 60.1104 35.2557C58.8935 36.3003 57.3353 36.8617 55.7318 36.8333H48.1668M28.3334 42.5V53.8333C28.3334 56.0877 29.229 58.2497 30.823 59.8438C32.4171 61.4378 34.5791 62.3333 36.8334 62.3333L48.1668 36.8333V5.66667H16.2068C14.8402 5.65122 13.514 6.13019 12.4727 7.01532C11.4314 7.90045 10.745 9.13211 10.5401 10.4833L6.63009 35.9833C6.50681 36.7955 6.56159 37.6247 6.79062 38.4136C7.01966 39.2025 7.41746 39.9322 7.95649 40.552C8.49551 41.1719 9.16286 41.6672 9.9123 42.0036C10.6617 42.3399 11.4753 42.5093 12.2968 42.5H28.3334Z" stroke="#AB1111" stroke-width="5" stroke-linecap="round" stroke-linejoin="round"/>
</g>
</svg>
