<svg width="15" height="18" viewBox="0 0 15 18" fill="none" xmlns="http://www.w3.org/2000/svg">
<path id="border_color" d="M0 17.2455V14.2455H15V17.2455H0ZM1.5 12.7455V9.93302L8.2875 3.14552L11.1 5.95802L4.3125 12.7455H1.5ZM3 11.2455H3.675L9 5.95802L8.2875 5.24552L3 10.5705V11.2455ZM11.9438 5.13302L9.13125 2.32052L10.4813 0.970517C10.6188 0.820517 10.7938 0.748642 11.0063 0.754892C11.2188 0.761142 11.3937 0.833017 11.5312 0.970517L13.2938 2.73302C13.4313 2.87052 13.5 3.04239 13.5 3.24864C13.5 3.45489 13.4313 3.63302 13.2938 3.78302L11.9438 5.13302Z" fill="#1C1C1C"/>
</svg>
