<svg width="244" height="61" viewBox="0 0 244 61" fill="none" xmlns="http://www.w3.org/2000/svg">
<path d="M72.1967 43.8405C69.963 42.4775 68.2215 40.6225 66.9722 38.3131C65.7229 36.0037 65.0793 33.4293 65.0793 30.6656C65.0793 27.8262 65.7607 25.1761 67.0858 22.7531C68.4108 20.3301 70.2281 18.3615 72.4617 16.9228C74.7333 15.4842 77.1562 14.7649 79.8442 14.7649C82.4565 14.7649 84.8416 15.3328 86.9995 16.5064C89.1575 17.68 90.2175 19.7623 90.1418 22.8288H86.7345C86.8102 21.0116 86.0909 19.7623 84.6144 19.0808C83.1001 18.3993 81.4343 18.0586 79.6549 18.0586C77.6484 18.0586 75.7933 18.6643 74.0897 19.838C72.386 21.0116 71.061 22.6017 70.0388 24.5703C69.0166 26.539 68.5244 28.6212 68.5244 30.817C68.5244 32.9371 69.0166 34.9058 69.963 36.723C70.9095 38.5402 72.2346 39.9789 73.9382 41.0389C75.6419 42.0989 77.5727 42.6668 79.6928 42.6668C81.6993 42.6668 83.5544 42.2125 85.258 41.3039C86.9617 40.3953 88.3246 39.0702 89.3089 37.4045L92.1862 39.3731C90.8232 41.5689 89.0439 43.1969 86.7724 44.2948C84.5008 45.3927 82.1157 45.9606 79.617 45.9606C76.9291 45.8848 74.4304 45.2034 72.1967 43.8405Z" fill="#0E131E"/>
<path d="M99.4172 13.8562V25.5924C101.121 23.7752 103.317 22.8666 106.005 22.8666C108.352 22.8666 110.169 23.5102 111.418 24.7974C112.668 26.0846 113.274 27.864 113.274 30.1355V45.1654H109.753V30.6277C109.753 29.1512 109.45 28.0533 108.844 27.2582C108.238 26.4632 107.216 26.0846 105.74 26.0846C104.377 26.0846 103.279 26.3875 102.37 27.0311C101.462 27.6747 100.477 28.659 99.4172 30.0598V45.2033H95.8963V13.8562H99.4172Z" fill="#0E131E"/>
<path d="M130.802 42.9697C130.159 43.8026 129.25 44.4462 128.152 44.9005C127.054 45.3548 125.805 45.582 124.442 45.582C122.095 45.582 120.202 44.9384 118.763 43.6512C117.324 42.364 116.643 40.6603 116.643 38.5402C116.643 36.3066 117.476 34.5651 119.179 33.3157C120.883 32.0664 123.23 31.4607 126.297 31.4607H130.045V30.552C130.045 28.9241 129.742 27.7505 129.174 27.069C128.568 26.3876 127.584 26.0468 126.183 26.0468C124.972 26.0468 123.798 26.274 122.625 26.6904C121.451 27.1069 120.391 27.7505 119.407 28.5455L117.703 25.9333C118.725 24.9868 120.012 24.2296 121.527 23.6996C123.041 23.1696 124.593 22.8667 126.221 22.8667C128.606 22.8667 130.424 23.4724 131.673 24.7218C132.922 25.9711 133.566 27.7505 133.566 30.0599V38.616C133.566 40.8875 134.172 42.5154 135.421 43.5755L133.149 45.7334C132.051 44.9762 131.256 44.0298 130.802 42.9697ZM128.493 40.9632C129.515 40.0167 130.007 38.7674 130.007 37.253V34.6408H126.297C124.139 34.6408 122.587 34.9437 121.64 35.5494C120.694 36.1551 120.202 37.1395 120.202 38.5024C120.202 39.7517 120.58 40.6982 121.337 41.3797C122.095 42.0611 123.155 42.4018 124.518 42.4018C126.146 42.4018 127.471 41.9097 128.493 40.9632Z" fill="#0E131E"/>
<path d="M140.418 43.9162C139.282 42.7047 138.715 40.9253 138.715 38.6538V18.0586H142.235V23.321H148.861V26.5011H142.198V38.6538C142.198 40.0546 142.5 41.0389 143.068 41.5689C143.674 42.0989 144.356 42.4018 145.151 42.4018C145.718 42.4018 146.173 42.3261 146.551 42.2125C146.892 42.0989 147.384 41.8718 147.99 41.5689L149.618 44.4462C148.482 45.3169 147.006 45.7334 145.188 45.7334C143.144 45.7712 141.554 45.1276 140.418 43.9162Z" fill="#0E131E"/>
<path d="M50.0872 30.1735C50.0872 38.1238 53.078 45.6956 58.4919 51.5258L60.9905 49.1786C56.1825 43.9919 53.5323 37.2531 53.5323 30.1735C53.5323 28.697 53.6459 27.2583 53.8731 25.8197H53.9109C54.2895 23.321 55.0088 20.8981 56.031 18.6644C56.1446 18.4372 56.2203 18.2101 56.3339 17.9829C56.3718 17.9072 56.4096 17.8694 56.4475 17.7936C57.3561 15.9764 58.4919 14.2349 59.8169 12.6448C59.8548 12.607 59.8548 12.5691 59.8926 12.5691C60.0819 12.342 60.3091 12.1148 60.4984 11.8498C60.5741 11.7741 60.6498 11.6605 60.7255 11.5848L60.6877 11.6227L58.3026 9.12397C50.958 16.0521 41.4175 20.0273 31.3092 20.2545V20.2166C30.9685 20.2166 30.6656 20.2545 30.3249 20.2545H30.287C27.5991 20.2545 24.8732 19.9894 22.261 19.4594H22.2231C21.9202 18.2858 21.5795 17.15 21.1631 16.0143C24.1161 16.7336 27.1448 17.1122 30.2492 17.1122C39.8653 17.1122 48.9893 13.4777 55.9932 6.92816L53.6459 4.42948C47.2856 10.4112 38.9946 13.7049 30.2492 13.7049C30.022 13.7049 29.7949 13.7049 29.5677 13.7049V13.6292C26.1226 13.5535 22.7531 12.9856 19.5351 11.8877C19.5351 11.9255 19.573 11.9634 19.573 12.0012C19.5351 12.0012 19.4973 12.0012 19.4973 11.9634C18.8915 10.6762 18.2101 9.38898 17.4908 8.13964C21.4659 9.91901 25.8197 10.9033 30.2113 10.9033C38.1617 10.9033 45.7334 7.91249 51.5637 2.49868L49.2164 0C44.0676 4.84593 37.3288 7.49604 30.2492 7.49604C29.492 7.49604 28.7348 7.45819 27.9777 7.38247V7.34461C21.8824 6.85244 16.1657 4.39162 11.5848 0.227153C11.6984 0.340729 11.8119 0.454306 11.8877 0.567882C11.7741 0.454306 11.6605 0.378588 11.5469 0.265012L9.08611 2.61226C16.3171 10.2219 20.2923 20.1787 20.2923 30.6656C20.2923 31.0442 20.2923 31.385 20.2923 31.7635C20.2923 31.8771 20.2923 31.9528 20.2923 32.0664C20.2923 32.3314 20.2545 32.5964 20.2545 32.8993C20.2545 33.0129 20.2545 33.0886 20.2166 33.2022C20.2166 33.4672 20.1787 33.7322 20.1787 33.9972C20.1787 34.1108 20.1787 34.1865 20.1409 34.3001C20.103 34.5651 20.103 34.8301 20.0652 35.0951C20.0652 35.2087 20.0273 35.2844 20.0273 35.398C19.9894 35.663 19.9516 35.928 19.9137 36.2309C19.9137 36.3066 19.8759 36.4202 19.8759 36.4959C19.838 36.7609 19.8002 37.0638 19.7623 37.3288C19.7623 37.4045 19.7244 37.4802 19.7244 37.5559C19.6487 37.8967 19.6109 38.2374 19.5351 38.5403C19.5351 38.5781 19.5351 38.5781 19.5351 38.616C19.5351 38.616 19.5351 38.616 19.5351 38.6538C18.3615 38.9567 17.2258 39.2974 16.09 39.7139C16.8472 36.7609 17.2258 33.7322 17.2258 30.6278C17.2258 21.0116 13.5913 11.8877 7.04174 4.88379L4.54306 7.23103C10.4869 13.6292 13.7806 21.9202 13.7806 30.6656C13.7806 31.3092 13.7427 31.915 13.7049 32.5207L13.6292 32.5586C13.4399 35.5873 12.9099 38.5781 11.9634 41.4175C10.714 41.9854 9.50256 42.629 8.32894 43.3483C10.0704 39.411 10.9791 35.133 10.9791 30.7035C10.9791 22.7531 7.98821 15.1814 2.5744 9.35113L0 11.6984C4.80807 16.885 7.45818 23.6239 7.45818 30.7035C7.45818 31.9528 7.38247 33.2022 7.23103 34.4137H7.19317C6.436 39.9789 4.16447 45.1656 0.340729 49.3679C0.340729 49.3679 0.340729 49.3679 0.340729 49.4057L2.72583 51.9044C10.0326 44.9384 19.5351 41.0011 29.5677 40.7361C29.9463 40.7361 30.3628 40.6982 30.7035 40.6982H30.7414C33.4293 40.6982 36.1173 40.9632 38.7296 41.4933H38.7674C39.0703 42.6669 39.411 43.8026 39.8275 44.9384C39.3732 44.8248 38.9189 44.7113 38.4645 44.6355C37.4424 44.4084 36.458 44.2569 35.4358 44.1434C34.1108 43.9919 32.7857 43.8784 31.4607 43.8784C31.3471 43.8784 31.1957 43.8784 31.0821 43.8784C31.0064 43.8784 30.8928 43.8784 30.8171 43.8784C21.2009 43.8784 12.077 47.5128 5.07308 54.0624L7.42033 56.5611C13.7427 50.5415 22.0338 47.2478 30.7792 47.2478C31.385 47.2478 32.0286 47.2857 32.6343 47.2857L32.6721 47.3614C35.663 47.5128 38.616 48.0428 41.4554 48.9893C41.4554 48.9514 41.4554 48.9514 41.4175 48.9136C41.4554 48.9136 41.4554 48.9136 41.4932 48.9514C42.099 50.2386 42.7805 51.488 43.4998 52.7373C39.5625 50.9958 35.2465 50.0493 30.8549 50.0493C22.9046 50.0493 15.3328 53.0402 9.50256 58.454L11.8498 60.9527C17.0365 56.1446 23.7753 53.4945 30.8549 53.4945C32.5207 53.4945 34.1486 53.6459 35.7766 53.9109V53.9488C40.8875 54.8574 45.5063 57.0532 49.4057 60.612C49.3679 60.5741 49.2922 60.4984 49.2543 60.4605C49.33 60.5362 49.3679 60.5741 49.4436 60.612L51.9423 58.2268C44.7112 50.6172 40.7361 40.6604 40.7361 30.1735C40.7361 27.4855 41.0011 24.8354 41.5311 22.261C42.7047 21.9581 43.8026 21.6174 44.9384 21.2388C44.2948 23.7753 43.9919 26.3876 43.9162 29.0756C43.9162 29.3027 43.9162 29.5299 43.9162 29.757C43.9162 29.9085 43.9162 30.0599 43.9162 30.2113C43.9162 39.8275 47.5507 48.9514 54.1002 55.9553L56.5989 53.6081C50.6172 47.2478 47.3235 38.9567 47.3235 30.2113C47.3235 29.6056 47.3614 28.9998 47.3614 28.3941H47.3992C47.5507 25.4033 48.0807 22.4503 49.0272 19.6109V19.573C50.3144 18.9673 51.6015 18.2858 52.8509 17.5665C51.0337 21.5038 50.0872 25.7818 50.0872 30.1735ZM30.7414 37.2531C30.2492 37.2531 29.757 37.2531 29.2649 37.2909C27.5234 37.3666 25.8197 37.5181 24.1161 37.7831V37.7452C23.7753 37.7831 23.4346 37.8588 23.0939 37.8967C23.3967 36.1173 23.5482 34.3379 23.6239 32.5207C23.6239 32.4829 23.6239 32.445 23.6239 32.4071C23.6618 31.8014 23.6618 31.2335 23.6618 30.6278C23.6618 30.4006 23.6618 30.2113 23.6618 29.9842C23.6239 27.6748 23.3967 25.3275 23.0182 23.0939C23.6239 23.1696 24.2296 23.2832 24.7975 23.3589C25.4411 23.4346 26.0847 23.5103 26.7283 23.5482C27.9019 23.6618 29.0756 23.6996 30.2492 23.6996C30.8549 23.6996 31.4985 23.6996 32.1043 23.6618C34.0351 23.586 35.928 23.3589 37.7831 23.056C37.5938 24.2296 37.4424 25.4033 37.3666 26.6147C37.2909 27.8262 37.2152 28.9998 37.2152 30.2113C37.1773 32.7479 37.4424 35.2844 37.8588 37.7831C35.5873 37.4424 33.1643 37.2531 30.7414 37.2531Z" fill="#4460F1"/>
<path d="M163.058 19.1566H153.934V9.99475H181.571V19.1566H172.258V45.1277H163.02V19.1566H163.058Z" fill="#4460F1"/>
<path d="M183.918 27.5993C183.918 17.9075 191.793 10.0328 201.485 10.0328C206.293 10.0328 210.646 11.9636 213.864 15.1438L207.391 21.6555C205.838 20.1411 203.832 19.3461 201.485 19.3461C196.714 19.3461 193.231 22.8291 193.231 27.5993C193.231 32.3695 196.714 35.8525 201.485 35.8525C203.87 35.8525 205.952 35.0196 207.391 33.5053L213.94 39.9792C210.646 43.2729 206.028 45.1658 201.485 45.1658C191.793 45.1658 183.918 37.2912 183.918 27.5993Z" fill="#4460F1"/>
<path d="M216.287 31.3095V10.0328H225.563V31.158C225.563 33.6946 227.607 35.739 230.144 35.739C232.68 35.739 234.725 33.6946 234.725 31.158V10.0328H244V31.3095C244 39.0327 237.791 45.1658 230.144 45.1658C222.421 45.1658 216.287 39.0327 216.287 31.3095Z" fill="#4460F1"/>
</svg>
