<svg width="33" height="34" viewBox="0 0 33 34" fill="none" xmlns="http://www.w3.org/2000/svg">
<g filter="url(#filter0_d_1307_10209)">
<path d="M4 15.8198C4 8.91627 9.59644 3.31982 16.5 3.31982C23.4036 3.31982 29 8.91627 29 15.8198V16.1798C29 23.0834 23.4036 28.6798 16.5 28.6798C9.59644 28.6798 4 23.0834 4 16.1798V15.8198Z" fill="#FBFBFB"/>
<path d="M19.8333 19.3332L22.3333 12.6665L24.8341 19.3332C24.1127 19.874 23.2353 20.1664 22.3337 20.1664C21.432 20.1664 20.5547 19.874 19.8333 19.3332Z" stroke="black" stroke-width="1.5" stroke-linecap="round" stroke-linejoin="round"/>
<path d="M8.16663 19.3332L10.6666 12.6665L13.1675 19.3332C12.446 19.874 11.5687 20.1664 10.667 20.1664C9.76539 20.1664 8.88804 19.874 8.16663 19.3332Z" stroke="black" stroke-width="1.5" stroke-linecap="round" stroke-linejoin="round"/>
<path d="M12.3333 23.5H20.6666" stroke="black" stroke-width="1.5" stroke-linecap="round" stroke-linejoin="round"/>
<path d="M16.5 8.5V23.5" stroke="black" stroke-width="1.5" stroke-linecap="round" stroke-linejoin="round"/>
<path d="M9 11.8332H10.6667C12.3333 11.8332 14.8333 10.9998 16.5 10.1665C18.1667 10.9998 20.6667 11.8332 22.3333 11.8332H24" stroke="black" stroke-width="1.5" stroke-linecap="round" stroke-linejoin="round"/>
</g>
<defs>
<filter id="filter0_d_1307_10209" x="0" y="0.319824" width="33" height="33.3599" filterUnits="userSpaceOnUse" color-interpolation-filters="sRGB">
<feFlood flood-opacity="0" result="BackgroundImageFix"/>
<feColorMatrix in="SourceAlpha" type="matrix" values="0 0 0 0 0 0 0 0 0 0 0 0 0 0 0 0 0 0 127 0" result="hardAlpha"/>
<feOffset dy="1"/>
<feGaussianBlur stdDeviation="2"/>
<feComposite in2="hardAlpha" operator="out"/>
<feColorMatrix type="matrix" values="0 0 0 0 0 0 0 0 0 0 0 0 0 0 0 0 0 0 0.43 0"/>
<feBlend mode="normal" in2="BackgroundImageFix" result="effect1_dropShadow_1307_10209"/>
<feBlend mode="normal" in="SourceGraphic" in2="effect1_dropShadow_1307_10209" result="shape"/>
</filter>
</defs>
</svg>
