<svg width="32" height="30" viewBox="0 0 32 30" fill="none" xmlns="http://www.w3.org/2000/svg">
<path id="Vector" d="M26.2793 14.8509C26.2793 18.764 27.8485 22.4907 30.689 25.3602L32 24.205C29.4773 21.6522 28.0869 18.3354 28.0869 14.8509C28.0869 14.1242 28.1465 13.4162 28.2657 12.7081H28.2855C28.4842 11.4783 28.8616 10.2857 29.3979 9.18633C29.4575 9.07453 29.4972 8.96273 29.5568 8.85093C29.5767 8.81366 29.5965 8.79503 29.6164 8.75776C30.0931 7.86335 30.689 7.00621 31.3842 6.2236C31.4041 6.20497 31.4041 6.18634 31.424 6.18634C31.5233 6.07453 31.6425 5.96273 31.7418 5.8323C31.7815 5.79503 31.8212 5.73913 31.861 5.70186L31.8411 5.7205L30.5897 4.49068C26.7362 7.90062 21.7306 9.85714 16.4271 9.96894V9.95031C16.2483 9.95031 16.0894 9.96894 15.9106 9.96894H15.8908C14.4804 9.96894 13.0503 9.83851 11.6797 9.57764H11.6598C11.5009 9 11.3222 8.44099 11.1037 7.88199C12.653 8.23602 14.2421 8.42236 15.8709 8.42236C20.9162 8.42236 25.7033 6.63354 29.378 3.40994L28.1465 2.18012C24.8094 5.12422 20.4593 6.74534 15.8709 6.74534C15.7517 6.74534 15.6325 6.74534 15.5133 6.74534V6.70807C13.7058 6.67081 11.9379 6.3913 10.2495 5.85093C10.2495 5.86956 10.2694 5.8882 10.2694 5.90683C10.2495 5.90683 10.2297 5.90683 10.2297 5.8882C9.91186 5.25466 9.55431 4.62112 9.17691 4.00621C11.2626 4.88199 13.5469 5.36646 15.851 5.36646C20.0223 5.36646 23.995 3.89441 27.054 1.22981L25.8225 0C23.121 2.38509 19.5854 3.68944 15.8709 3.68944C15.4736 3.68944 15.0764 3.67081 14.6791 3.63354V3.61491C11.4811 3.37267 8.48169 2.16149 6.07821 0.111801C6.1378 0.167702 6.19739 0.223602 6.23712 0.279503C6.17753 0.223602 6.11794 0.186335 6.05835 0.130435L4.76723 1.28571C8.56114 5.03106 10.6468 9.93168 10.6468 15.0932C10.6468 15.2795 10.6468 15.4472 10.6468 15.6335C10.6468 15.6894 10.6468 15.7267 10.6468 15.7826C10.6468 15.913 10.6269 16.0435 10.6269 16.1925C10.6269 16.2484 10.6269 16.2857 10.6071 16.3416C10.6071 16.4721 10.5872 16.6025 10.5872 16.7329C10.5872 16.7888 10.5872 16.8261 10.5674 16.882C10.5475 17.0124 10.5475 17.1429 10.5276 17.2733C10.5276 17.3292 10.5078 17.3665 10.5078 17.4224C10.4879 17.5528 10.468 17.6832 10.4482 17.8323C10.4482 17.8696 10.4283 17.9255 10.4283 17.9627C10.4084 18.0932 10.3886 18.2422 10.3687 18.3727C10.3687 18.4099 10.3489 18.4472 10.3489 18.4845C10.3091 18.6522 10.2893 18.8199 10.2495 18.9689C10.2495 18.9876 10.2495 18.9876 10.2495 19.0062C10.2495 19.0062 10.2495 19.0062 10.2495 19.0248C9.63377 19.1739 9.03787 19.3416 8.44196 19.5466C8.83923 18.0932 9.03787 16.6025 9.03787 15.0745C9.03787 10.3416 7.13098 5.85093 3.6946 2.40373L2.38361 3.55901C5.50217 6.70807 7.23029 10.7888 7.23029 15.0932C7.23029 15.4099 7.21043 15.7081 7.19057 16.0062L7.15084 16.0248C7.05152 17.5155 6.77343 18.9876 6.27685 20.3851C5.62135 20.6646 4.98572 20.9814 4.36996 21.3354C5.28367 19.3975 5.7604 17.2919 5.7604 15.1118C5.7604 11.1988 4.19119 7.47205 1.35071 4.60248L0 5.75776C2.52266 8.31056 3.9131 11.6273 3.9131 15.1118C3.9131 15.7267 3.87337 16.3416 3.79392 16.9379H3.77405C3.37679 19.677 2.18498 22.2298 0.178771 24.2981C0.178771 24.2981 0.178771 24.2981 0.178771 24.3168L1.43017 25.5466C5.26381 22.118 10.2495 20.1801 15.5133 20.0497C15.712 20.0497 15.9305 20.0311 16.1093 20.0311H16.1291C17.5394 20.0311 18.9497 20.1615 20.3203 20.4224H20.3402C20.4991 21 20.6778 21.559 20.8963 22.118C20.658 22.0621 20.4196 22.0062 20.1813 21.9689C19.6449 21.8571 19.1285 21.7826 18.5922 21.7267C17.897 21.6522 17.2017 21.5963 16.5065 21.5963C16.4469 21.5963 16.3675 21.5963 16.3079 21.5963C16.2682 21.5963 16.2086 21.5963 16.1688 21.5963C11.1235 21.5963 6.33644 23.3851 2.6617 26.6087L3.89323 27.8385C7.21043 24.8758 11.5605 23.2547 16.149 23.2547C16.4668 23.2547 16.8045 23.2733 17.1223 23.2733L17.1421 23.3106C18.7114 23.3851 20.2607 23.646 21.7505 24.1118C21.7505 24.0932 21.7505 24.0932 21.7306 24.0745C21.7505 24.0745 21.7505 24.0745 21.7703 24.0932C22.0881 24.7267 22.4457 25.3416 22.8231 25.9565C20.7573 25.0994 18.4929 24.6335 16.1887 24.6335C12.0174 24.6335 8.04469 26.1056 4.98572 28.7702L6.21726 30C8.93855 27.6335 12.4742 26.3292 16.1887 26.3292C17.0627 26.3292 17.9168 26.4037 18.771 26.5342V26.5528C21.4525 27 23.8759 28.0807 25.9218 29.8323C25.9019 29.8137 25.8622 29.7764 25.8423 29.7578C25.8821 29.795 25.9019 29.8137 25.9417 29.8323L27.2526 28.6584C23.4587 24.913 21.3731 20.0124 21.3731 14.8509C21.3731 13.528 21.5121 12.2236 21.7902 10.9565C22.406 10.8075 22.982 10.6398 23.5779 10.4534C23.2402 11.7019 23.0813 12.9876 23.0416 14.3106C23.0416 14.4224 23.0416 14.5342 23.0416 14.646C23.0416 14.7205 23.0416 14.795 23.0416 14.8696C23.0416 19.6025 24.9485 24.0932 28.3849 27.5404L29.6958 26.3851C26.5574 23.2547 24.8293 19.1739 24.8293 14.8696C24.8293 14.5714 24.8492 14.2733 24.8492 13.9752H24.869C24.9485 12.5031 25.2266 11.0497 25.7232 9.65217V9.63354C26.3985 9.3354 27.0739 9 27.7294 8.64596C26.7759 10.5838 26.2793 12.6894 26.2793 14.8509ZM16.1291 18.3354C15.8709 18.3354 15.6127 18.3354 15.3544 18.354C14.4407 18.3913 13.5469 18.4658 12.653 18.5963V18.5776C12.4742 18.5963 12.2955 18.6335 12.1167 18.6522C12.2756 17.7764 12.3551 16.9006 12.3948 16.0062C12.3948 15.9876 12.3948 15.9689 12.3948 15.9503C12.4147 15.6522 12.4147 15.3727 12.4147 15.0745C12.4147 14.9627 12.4147 14.8696 12.4147 14.7578C12.3948 13.6211 12.2756 12.4658 12.077 11.3665C12.3948 11.4037 12.7126 11.4596 13.0106 11.4969C13.3482 11.5342 13.6859 11.5714 14.0236 11.5901C14.6394 11.646 15.2551 11.6646 15.8709 11.6646C16.1887 11.6646 16.5264 11.6646 16.8442 11.646C17.8572 11.6087 18.8504 11.4969 19.8237 11.3478C19.7244 11.9255 19.6449 12.5031 19.6052 13.0994C19.5655 13.6957 19.5258 14.2733 19.5258 14.8696C19.5059 16.118 19.6449 17.3665 19.8634 18.5963C18.6716 18.4286 17.4004 18.3354 16.1291 18.3354Z" fill="#4460F1"/>
</svg>
