<svg width="33" height="34" viewBox="0 0 33 34" fill="none" xmlns="http://www.w3.org/2000/svg">
<g filter="url(#filter0_d_1305_9926)">
<rect x="4" y="3.72021" width="25" height="24.5592" rx="12.2796" fill="white"/>
<g clip-path="url(#clip0_1305_9926)">
<path d="M19.7531 7.72999C19.9201 7.77738 20.0831 7.83089 20.2114 7.95956C21.0692 8.81945 21.93 9.67607 22.7853 10.5384C22.9079 10.6618 22.963 10.826 23.0141 10.9963C23.0766 11.2055 23.0717 11.4122 23.0717 11.6221C23.0725 15.5155 23.0697 19.4085 23.0762 23.3019C23.077 23.6965 22.912 23.9873 22.6199 24.2177C22.5382 24.2819 22.4152 24.2986 22.3082 24.3239C22.2465 24.3387 22.1787 24.3264 22.1138 24.3264C18.3728 24.3264 14.6317 24.3174 10.8907 24.3358C10.3131 24.3386 9.92505 23.8248 9.92505 23.3717C9.92832 18.4592 9.9275 13.5466 9.92627 8.63399C9.92627 8.22958 10.1268 7.94608 10.4483 7.73122C10.4634 7.721 10.4908 7.72999 10.5125 7.72999C10.5639 7.66708 10.6571 7.72958 10.7077 7.66504H19.5582C19.6089 7.72958 19.702 7.66708 19.7535 7.72999H19.7531Z" fill="#0C0C0C"/>
<path d="M10.6692 7.78809C10.6386 7.91348 10.5381 7.82852 10.474 7.85303V7.78809H10.6692Z" fill="#626262"/>
<path d="M19.7142 7.85303C19.65 7.82811 19.5496 7.91348 19.5189 7.78809H19.7142V7.85303Z" fill="#4A4A4A"/>
<path d="M10.4741 16.1254C10.4741 13.7179 10.4802 11.3105 10.4688 8.90301C10.4667 8.44063 10.6134 8.36833 11.0161 8.36956C13.7704 8.37813 16.5246 8.37691 19.2785 8.36915C19.5227 8.36833 19.6967 8.44921 19.8622 8.61667C20.6321 9.39561 21.409 10.1676 22.1834 10.942C22.2059 10.9645 22.228 10.9882 22.25 11.0111C22.2108 11.0217 22.172 11.0409 22.1328 11.0409C21.4498 11.0429 20.7665 11.0425 20.0835 11.0417C20.0313 11.0417 19.9761 11.0421 19.9275 11.0262C19.7543 10.9694 19.7343 10.806 19.7188 10.6659C19.6975 10.4731 19.7135 10.2763 19.7135 10.081C19.7135 9.79917 19.698 9.51611 19.7188 9.23549C19.7327 9.05169 19.5913 9.03616 19.4958 8.9753C19.3932 8.91036 19.3205 8.99082 19.2519 9.06231C19.16 9.15829 19.1249 9.2694 19.1261 9.40174C19.1302 9.82449 19.1114 10.2485 19.1322 10.6704C19.1522 11.0744 19.3111 11.402 19.7216 11.5703C19.8254 11.6127 19.9197 11.6274 20.0227 11.6279C20.7383 11.6291 21.4539 11.6287 22.1695 11.6287C22.2128 11.6287 22.2566 11.6323 22.2994 11.6279C22.4007 11.6168 22.4734 11.6274 22.4477 11.7618C22.4359 11.8247 22.4457 11.8917 22.4457 11.9567C22.4457 15.7521 22.442 19.5479 22.4506 23.3433C22.4514 23.7579 22.3301 23.869 21.9265 23.8678C18.283 23.8596 14.64 23.8629 10.9965 23.8629C10.9749 23.8629 10.9532 23.8629 10.9316 23.8629C10.5603 23.8621 10.4729 23.7775 10.4729 23.4132C10.4729 21.2116 10.4729 19.0104 10.4729 16.8088V16.1254H10.4741Z" fill="#FCFCFC"/>
<path d="M11.7105 16.6892C11.7105 16.3857 11.7093 16.0822 11.7109 15.7787C11.7117 15.6092 11.8518 15.407 12.0148 15.3245C12.1533 15.2542 12.2934 15.202 12.4539 15.2052C12.7574 15.2109 13.0609 15.2073 13.364 15.2069C13.4383 15.2069 13.5004 15.2387 13.5682 15.262C13.696 15.3061 13.7283 15.3719 13.7291 15.4916C13.7316 15.7452 13.6932 15.7893 13.4191 15.7922C13.094 15.7954 12.7688 15.7955 12.4437 15.7914C12.3461 15.7901 12.2885 15.7865 12.2913 15.9241C12.3028 16.4551 12.2967 16.9861 12.295 17.5171C12.295 17.5812 12.3048 17.616 12.38 17.616C12.911 17.6139 13.442 17.616 13.973 17.6119C13.9999 17.6119 14.0485 17.5694 14.0494 17.5457C14.0555 17.3509 14.0534 17.1556 14.0518 16.9608C14.0518 16.9424 14.0359 16.9244 14.0273 16.9065C14.0118 16.9171 13.9959 16.9269 13.9816 16.9383C13.8586 17.0359 13.7798 17.1801 13.6188 17.2406C13.444 17.3063 13.3999 17.3166 13.2851 17.2042C13.0842 17.0069 12.8897 16.8023 12.6855 16.6087C12.5789 16.5078 12.6181 16.3877 12.6304 16.2787C12.6402 16.1904 12.8183 16.1022 12.9159 16.121C12.9633 16.13 13.0127 16.1573 13.0482 16.1904C13.1516 16.2856 13.248 16.3894 13.3489 16.4874C13.4673 16.6026 13.4693 16.603 13.5972 16.4759C13.8508 16.2239 14.1012 15.9682 14.3573 15.7191C14.4227 15.6553 14.5093 15.6137 14.5812 15.5561C14.696 15.4642 14.7756 15.5843 14.8671 15.608C14.9398 15.6263 14.9827 15.8371 14.9419 15.9098C14.8969 15.9899 14.8491 16.0769 14.7801 16.1337C14.658 16.2333 14.6314 16.3497 14.6351 16.5C14.6449 16.8901 14.6404 17.2802 14.6367 17.6703C14.6359 17.741 14.6367 17.8341 14.5951 17.8774C14.5023 17.9742 14.43 18.0947 14.2842 18.1412C14.1629 18.18 14.0457 18.2033 13.9195 18.2025C13.3885 18.2001 12.8575 18.209 12.3265 18.198C12.0765 18.1927 11.8735 18.0943 11.7603 17.8398C11.7281 17.7675 11.7109 17.705 11.7105 17.6327C11.7093 17.3186 11.7101 17.0041 11.7101 16.69L11.7105 16.6892Z" fill="#0C0C0C"/>
<path d="M13.1769 14.2956C12.8517 14.2956 12.5258 14.2805 12.2019 14.3017C12.0364 14.3127 11.978 14.1567 11.8445 14.1367C11.8489 14.0052 11.697 13.9578 11.7019 13.8017C11.7219 13.1739 11.7154 12.5449 11.7076 11.9163C11.7043 11.6692 12.0189 11.3616 12.2484 11.3653C12.6491 11.371 13.0502 11.364 13.4513 11.3698C13.5183 11.3706 13.5869 11.4057 13.6511 11.4339C13.6813 11.447 13.7111 11.4768 13.725 11.5066C13.7373 11.5331 13.7275 11.5703 13.7275 11.603C13.7287 11.8468 13.64 11.9449 13.3966 11.9514C13.1585 11.9575 12.9199 11.9498 12.6814 11.9539C12.5548 11.9559 12.4286 11.9702 12.3023 11.9792C12.3003 12.0976 12.2966 12.2161 12.2962 12.3341C12.2954 12.7569 12.2978 13.1797 12.2942 13.602C12.2934 13.6857 12.3166 13.7123 12.4024 13.7115C12.9224 13.7078 13.4428 13.7086 13.9627 13.7107C14.0326 13.7107 14.0575 13.6866 14.0538 13.6179C14.0493 13.5313 14.055 13.4443 14.0522 13.3577C14.0485 13.2409 14.0403 13.1245 14.0342 13.0077C13.9501 13.0824 13.8647 13.1564 13.7818 13.2328C13.6968 13.3104 13.6343 13.4043 13.4861 13.3904C13.3619 13.379 13.2651 13.3626 13.1777 13.2622C13.0502 13.1151 12.9036 12.9848 12.7672 12.8455C12.6945 12.7716 12.5899 12.7152 12.6205 12.5808C12.6389 12.5008 12.6303 12.4093 12.6663 12.3403C12.6867 12.3015 12.7721 12.2904 12.8305 12.279C12.9812 12.2488 13.089 12.3096 13.1944 12.4228C13.5179 12.7687 13.4795 12.7573 13.8047 12.4289C14.0256 12.2055 14.2548 11.9894 14.4684 11.7594C14.5713 11.6491 14.6898 11.6924 14.7993 11.6978C14.8822 11.7018 14.9749 11.8852 14.9618 11.9808C14.9565 12.0196 14.9414 12.0609 14.9185 12.0919C14.8867 12.1352 14.8483 12.1761 14.8046 12.2071C14.6559 12.3117 14.631 12.4559 14.6351 12.627C14.6449 13.0061 14.6396 13.3855 14.6375 13.765C14.6359 14.0848 14.4325 14.2927 14.1192 14.2948C13.8051 14.2972 13.4905 14.2952 13.1764 14.2952L13.1769 14.2956Z" fill="#0C0C0C"/>
<path d="M14.6388 20.5638C14.6388 20.8779 14.6404 21.192 14.6384 21.5061C14.6363 21.8296 14.4374 22.0379 14.1237 22.0392C13.4849 22.0416 12.8452 22.0253 12.2068 22.0502C12.0459 22.0563 12.0046 21.897 11.871 21.9081C11.8555 21.772 11.6995 21.7177 11.7036 21.5519C11.7199 20.9241 11.7089 20.2954 11.7105 19.6672C11.7113 19.3764 12.0165 19.1076 12.2738 19.1097C12.8693 19.115 13.4653 19.1174 14.0608 19.1085C14.3353 19.1044 14.4664 19.3053 14.6269 19.4655C14.6547 19.4932 14.6375 19.568 14.6375 19.6211C14.6384 19.9352 14.6375 20.2493 14.6375 20.5634L14.6388 20.5638Z" fill="#0C0C0C"/>
<path d="M18.2384 17.6146C17.4048 17.6146 16.5715 17.6162 15.7378 17.6122C15.648 17.6117 15.5593 17.6358 15.4625 17.5701C15.3155 17.47 15.2505 17.3826 15.2894 17.2208C15.313 17.1228 15.4515 17.0293 15.5822 17.0293C17.3574 17.0289 19.133 17.0285 20.9081 17.0293C21.1393 17.0293 21.286 17.2249 21.2075 17.4373C21.1651 17.5525 21.0368 17.577 20.9327 17.6109C20.8738 17.6301 20.804 17.6142 20.739 17.6142H18.2384V17.6146Z" fill="#0C0C0C"/>
<path d="M18.2253 13.7099C17.3594 13.7099 16.4934 13.7107 15.6271 13.7099C15.3702 13.7099 15.2717 13.6078 15.2889 13.3684C15.2979 13.2435 15.4028 13.1467 15.5625 13.1258C15.6263 13.1176 15.6924 13.1246 15.7574 13.1246H20.7586C20.8235 13.1246 20.8897 13.1168 20.953 13.1262C21.1078 13.1491 21.225 13.3162 21.2103 13.4824C21.1993 13.6045 21.0702 13.7095 20.9207 13.7095C20.0221 13.7107 19.1239 13.7099 18.2253 13.7099Z" fill="#0C0C0C"/>
<path d="M17.667 21.4543C16.9853 21.4543 16.3035 21.4555 15.6218 21.4526C15.5516 21.4526 15.4715 21.4445 15.4135 21.4106C15.3077 21.3489 15.2415 21.1871 15.2926 21.1104C15.3547 21.0172 15.4217 20.9278 15.5675 20.9302C16.076 20.9396 16.5846 20.9339 17.0931 20.9339C17.9697 20.9339 18.8458 20.9347 19.7224 20.9327C19.8228 20.9327 19.9393 20.9314 19.9658 21.034C19.9862 21.1136 20.0916 21.1851 19.985 21.3117C19.9094 21.4016 19.8621 21.4567 19.7444 21.4559C19.0521 21.4531 18.3593 21.4543 17.667 21.4543Z" fill="#010101"/>
<path d="M17.4848 16.3786C16.8574 16.3786 16.23 16.377 15.6022 16.3802C15.5001 16.3806 15.4245 16.3561 15.3481 16.2822C15.2709 16.2075 15.2673 16.1131 15.2967 16.0482C15.331 15.9714 15.418 15.9134 15.4919 15.8611C15.5209 15.8407 15.5761 15.8578 15.6194 15.8578C16.8742 15.8578 18.1294 15.8578 19.3841 15.8578C19.4797 15.8578 19.5643 15.8562 19.6443 15.942C19.724 16.0273 19.7399 16.1294 19.7056 16.2038C19.6664 16.2892 19.5953 16.3884 19.4646 16.379C19.4001 16.3741 19.3347 16.3782 19.2698 16.3782H17.4848V16.3786Z" fill="#010101"/>
<path d="M17.011 20.2831C16.5352 20.2831 16.0593 20.2761 15.5839 20.2876C15.454 20.2908 15.369 20.232 15.3225 20.1434C15.282 20.0662 15.262 19.94 15.2992 19.8709C15.3412 19.7925 15.454 19.7476 15.5426 19.7002C15.5761 19.6822 15.6276 19.6973 15.6709 19.6973C16.6116 19.6973 17.5522 19.6965 18.4929 19.6982C18.7176 19.6982 18.8181 19.8113 18.8034 20.0339C18.7944 20.1695 18.6796 20.2819 18.5358 20.2827C18.0277 20.2851 17.5196 20.2835 17.011 20.2835V20.2831Z" fill="#0C0C0C"/>
<path d="M16.9003 11.9528C17.3218 11.9528 17.7434 11.9528 18.1653 11.9528C18.2993 11.9528 18.419 11.9528 18.4851 12.1161C18.5668 12.3192 18.4892 12.5066 18.2772 12.5373C18.2241 12.545 18.1694 12.5385 18.1151 12.5385C17.3149 12.5385 16.5151 12.5377 15.715 12.5393C15.6096 12.5393 15.5111 12.5365 15.4164 12.4756C15.2983 12.3996 15.2571 12.3147 15.2889 12.1558C15.3077 12.063 15.4339 11.9544 15.5381 11.954C15.9923 11.9515 16.4461 11.9532 16.9003 11.9532V11.9528Z" fill="#0C0C0C"/>
<path d="M12.2961 20.5922C12.2961 20.3324 12.2973 20.0727 12.2953 19.8133C12.2948 19.7426 12.294 19.694 12.3941 19.6948C12.9349 19.6997 13.4761 19.6997 14.0169 19.6948C14.1113 19.694 14.1194 19.7345 14.119 19.8096C14.117 20.3075 14.119 20.805 14.117 21.3029C14.1162 21.4696 14.0729 21.5174 13.9197 21.5182C13.4112 21.5207 12.9026 21.5162 12.3941 21.5215C12.2948 21.5223 12.2944 21.4745 12.2948 21.4034C12.2969 21.133 12.2957 20.8622 12.2957 20.5918L12.2961 20.5922Z" fill="#FCFCFC"/>
</g>
</g>
<defs>
<filter id="filter0_d_1305_9926" x="0" y="0.720215" width="33" height="32.5591" filterUnits="userSpaceOnUse" color-interpolation-filters="sRGB">
<feFlood flood-opacity="0" result="BackgroundImageFix"/>
<feColorMatrix in="SourceAlpha" type="matrix" values="0 0 0 0 0 0 0 0 0 0 0 0 0 0 0 0 0 0 127 0" result="hardAlpha"/>
<feOffset dy="1"/>
<feGaussianBlur stdDeviation="2"/>
<feComposite in2="hardAlpha" operator="out"/>
<feColorMatrix type="matrix" values="0 0 0 0 0 0 0 0 0 0 0 0 0 0 0 0 0 0 0.43 0"/>
<feBlend mode="normal" in2="BackgroundImageFix" result="effect1_dropShadow_1305_9926"/>
<feBlend mode="normal" in="SourceGraphic" in2="effect1_dropShadow_1305_9926" result="shape"/>
</filter>
<clipPath id="clip0_1305_9926">
<rect width="13.15" height="16.6693" fill="white" transform="translate(9.92505 7.66504)"/>
</clipPath>
</defs>
</svg>
