<svg width="24" height="24" viewBox="0 0 24 24" fill="none" xmlns="http://www.w3.org/2000/svg">
<g id="icone/pin" clip-path="url(#clip0_2912_27816)">
<g id="Group">
<path id="Vector" d="M22.3283 4.90624L19.1189 1.69999C18.6221 1.20312 17.9658 0.931244 17.2658 0.931244C16.5658 0.931244 15.9064 1.20312 15.4127 1.69999L11.3752 5.73437C11.2877 5.82187 11.1596 5.86562 11.0314 5.84687C10.6689 5.79999 10.3002 5.77499 9.93457 5.77499C7.7002 5.77499 5.59395 6.64374 4.00645 8.21874C3.8252 8.39687 3.7252 8.64062 3.72207 8.89687C3.72207 9.14999 3.82207 9.39687 4.00332 9.57499L8.5252 14.0969L1.18457 21.4344C0.80957 21.8094 0.80957 22.4156 1.18457 22.7875C1.37207 22.975 1.61582 23.0687 1.8627 23.0687C2.10645 23.0687 2.35332 22.975 2.54082 22.7875L9.8752 15.45L14.5471 20.1219C14.7252 20.3 14.9689 20.4031 15.2252 20.4031C15.2252 20.4031 15.2252 20.4031 15.2283 20.4031C15.4814 20.4031 15.7252 20.3 15.9064 20.1187C17.4814 18.5312 18.3502 16.425 18.3502 14.1906C18.3502 13.7656 18.3189 13.3344 18.2533 12.9156C18.2346 12.7937 18.2783 12.6687 18.3658 12.5781L22.3283 8.61562C22.8252 8.11874 23.0971 7.46249 23.0971 6.76249C23.0971 6.06249 22.8252 5.40312 22.3283 4.90624ZM20.9752 7.26249L17.0096 11.225C16.4908 11.7437 16.2471 12.4844 16.3564 13.2031C16.4064 13.5281 16.4314 13.8594 16.4314 14.1906C16.4314 15.5937 15.9908 16.9281 15.1721 18.0375L6.08457 8.94999C7.19394 8.13124 8.52832 7.69062 9.93145 7.69062C10.2158 7.69062 10.5002 7.70937 10.7814 7.74687C11.5064 7.84062 12.2158 7.60312 12.7283 7.09062L16.7658 3.05312C16.9002 2.91874 17.0783 2.84687 17.2658 2.84687C17.4564 2.84687 17.6314 2.92187 17.7658 3.05312L20.9752 6.26249C21.1096 6.39687 21.1814 6.57499 21.1814 6.76249C21.1814 6.94999 21.1096 7.12812 20.9752 7.26249Z" fill="#1A1A1A"/>
<path id="Vector_2" d="M13.8878 8.24059C13.5128 7.86559 12.9065 7.86559 12.5347 8.24059C12.1597 8.61559 12.1597 9.22183 12.5347 9.59371L14.3503 11.4093C14.5378 11.5968 14.7815 11.6906 15.0284 11.6906C15.2753 11.6906 15.519 11.5968 15.7065 11.4093C16.0815 11.0343 16.0815 10.4281 15.7065 10.0562L13.8878 8.24059Z" fill="#1A1A1A"/>
</g>
</g>
<defs>
<clipPath id="clip0_2912_27816">
<rect width="24" height="24" fill="white"/>
</clipPath>
</defs>
</svg>
