<svg width="21" height="20" viewBox="0 0 21 20" fill="none" xmlns="http://www.w3.org/2000/svg">
<g id="PaperPlaneRight-r">
<g id="Vector">
<path fill-rule="evenodd" clip-rule="evenodd" d="M17.9539 8.90764C17.9539 8.90764 18.2503 9.07257 18.4227 9.36497C18.4227 9.36497 18.5959 9.65876 18.5959 9.99981C18.5959 9.99981 18.5959 10.3409 18.4227 10.6347C18.4227 10.6347 18.2495 10.9284 17.951 11.0936L4.75857 18.4826C4.75857 18.4826 4.41401 18.673 4.02596 18.634C4.02596 18.634 3.63791 18.595 3.34088 18.3423C3.34088 18.3423 3.04385 18.0895 2.94324 17.7127C2.94324 17.7127 2.84263 17.3359 2.97413 16.9688L5.45858 9.99981L2.97382 3.03C2.97382 3.03 2.84263 2.6637 2.94324 2.2869C2.94324 2.2869 3.04385 1.9101 3.34088 1.65737C3.34088 1.65737 3.63791 1.40463 4.02596 1.36564C4.02596 1.36564 4.41401 1.32665 4.75538 1.51524L17.951 8.90605L17.9539 8.90764ZM4.15093 2.60938L17.3431 9.99823L17.3459 9.99981L4.15093 17.3902L6.63187 10.4311C6.63187 10.4311 6.80086 9.99981 6.63187 9.5685L4.15093 2.60938Z" fill="black" fill-opacity="0.2"/>
<path d="M6.12503 10.6248H11.125C11.4702 10.6248 11.75 10.345 11.75 9.99985C11.75 9.65467 11.4702 9.37485 11.125 9.37485H6.12503C5.77985 9.37485 5.50003 9.65467 5.50003 9.99985C5.50003 10.345 5.77985 10.6248 6.12503 10.6248Z" fill="black" fill-opacity="0.2"/>
</g>
</g>
</svg>
