<svg width="33" height="34" viewBox="0 0 33 34" fill="none" xmlns="http://www.w3.org/2000/svg">
<g id="sistema_casa" filter="url(#filter0_d_1307_10213)">
<g clip-path="url(#clip0_1307_10213)">
<g id="banner-sistema-casa-trabalhado 1">
<path id="Vector" d="M16.5 2.66797H16.7916C17.1416 2.84005 17.4377 3.07776 17.7133 3.35484C19.9971 5.6488 22.291 7.93547 24.5777 10.228C24.8825 10.5328 25.2339 10.8128 25.2908 11.2896C25.056 12.6926 24.69 14.0721 24.5646 15.494C24.55 15.6632 24.4581 15.8134 24.3006 15.9096C24.1271 16.0073 23.9375 16.0511 23.7435 16.0526C21.3752 16.0613 19.0083 16.1226 16.64 16.0234C15.6716 16.124 14.7004 16.0671 13.7306 16.0701C10.7454 16.0788 7.76019 16.0759 4.77498 16.0701C4.34331 16.0701 3.89123 16.1255 3.53394 15.7828V15.6369C3.70602 15.2855 3.94664 14.9909 4.22373 14.7153C8.01102 10.9323 11.7969 7.14651 15.5783 3.35776C15.8554 3.08068 16.15 2.84005 16.5 2.66797Z" fill="#E5E5E5"/>
<path id="Vector_2" d="M16.624 15.7886C19.198 15.7886 21.7719 15.7871 24.3459 15.7856C24.6332 15.984 24.5778 16.299 24.6055 16.5804C24.8125 18.7125 25.3784 20.7279 26.5378 22.5494C27.019 23.3048 27.1123 23.3034 27.598 22.5319C28.3811 21.2879 28.9207 19.9448 29.2328 18.5054C29.3028 18.1831 29.2561 17.7442 29.7578 17.6771C29.7578 21.2704 29.7519 24.8652 29.768 28.4586C29.7694 28.8231 29.6863 28.9063 29.3217 28.9048C25.7284 28.8888 22.1336 28.8946 18.5403 28.8946C18.2486 28.7779 17.9569 28.7779 17.6667 28.8946H16.6473C16.3834 28.6292 16.363 28.2894 16.3615 27.9467C16.3557 24.1886 16.3542 20.4304 16.3615 16.6709C16.3615 16.3529 16.3892 16.0379 16.6255 15.7886H16.624Z" fill="#FEFEFE"/>
<path id="Vector_3" d="M16.6239 15.7885C16.6312 20.1577 16.6385 24.5254 16.6458 28.8946H14.7514C13.7408 28.6671 12.7068 28.5752 11.7327 28.1625C7.67268 26.4373 5.02289 23.4783 3.79935 19.239C3.65205 18.7271 3.76435 18.1715 3.53247 17.6756V15.7812L16.6239 15.7885Z" fill="#4743D6"/>
<path id="Vector_4" d="M29.7592 17.6758C29.4952 17.877 29.5433 18.1935 29.485 18.4633C29.1146 20.1929 28.4204 21.7766 27.436 23.2452C27.1312 23.7002 26.9737 23.6506 26.6879 23.2349C25.1508 20.9862 24.4304 18.4881 24.3458 15.7858C24.3633 14.1962 24.7323 12.6664 25.145 11.1439C25.4104 9.80369 26.055 8.67348 27.0277 7.72119C27.385 7.78098 27.5192 8.08723 27.6942 8.33953C28.8871 10.0531 29.6002 11.9431 29.7577 14.0329V17.6758H29.7592Z" fill="#94D13B"/>
<path id="Vector_5" d="M16.5 2.66797C16.3993 2.79922 16.3104 2.94359 16.1952 3.06026C12.1075 7.1538 8.0183 11.2459 3.92622 15.3351C3.81101 15.4503 3.66518 15.5363 3.53247 15.6355C3.53247 15.0521 3.53247 14.4703 3.53247 13.8869C3.73226 11.7651 4.52997 9.87797 5.72872 8.13234C7.50497 5.54672 9.95643 3.91922 12.9066 2.97568C13.5541 2.76859 14.2468 2.85901 14.8973 2.66797C15.431 2.66797 15.9662 2.66797 16.5 2.66797Z" fill="#00BAFE"/>
<path id="Vector_6" d="M3.53244 17.6758C3.7789 17.7852 3.75849 18.0316 3.79786 18.2314C4.84932 23.5747 8.84953 27.5749 14.1958 28.6308C14.397 28.6702 14.642 28.6483 14.7529 28.8947C11.1697 28.8947 7.58807 28.886 4.0064 28.9064C3.6039 28.9093 3.52078 28.8262 3.52224 28.4222C3.54265 24.8406 3.5339 21.2574 3.5339 17.6758H3.53244Z" fill="#FEFEFE"/>
<path id="Vector_7" d="M29.7592 14.0328C29.485 13.7747 29.558 13.4086 29.4865 13.0936C29.0432 11.154 28.295 9.3632 27.019 7.81591C26.7477 7.79111 26.6019 7.59132 26.4429 7.40903C24.5165 5.19091 22.1161 3.78216 19.2432 3.16236C18.9238 3.09382 18.4863 3.15653 18.3944 2.66799C22.0257 2.66799 25.6569 2.67674 29.2867 2.65632C29.6892 2.65341 29.7723 2.73653 29.7709 3.14049C29.7504 6.77174 29.7592 10.403 29.7592 14.0328Z" fill="#FEFEFE"/>
<path id="Vector_8" d="M14.8973 2.66794C14.6917 2.93189 14.3694 2.85898 14.1039 2.91294C8.88895 3.96585 4.85228 7.98064 3.79207 13.1752C3.74249 13.4173 3.80957 13.7206 3.53249 13.8869C3.53249 10.3038 3.54124 6.7221 3.52082 3.13898C3.51791 2.73648 3.60249 2.65481 4.00499 2.65627C7.63624 2.67669 11.266 2.66794 14.8973 2.66794Z" fill="#FEFEFE"/>
<path id="Vector_9" d="M18.3943 2.66797C18.651 2.94651 19.017 2.86776 19.332 2.93922C22.4718 3.65964 25.0779 5.20984 27.0189 7.81443C26.2927 8.86734 25.7195 10.0048 25.145 11.1438C22.5083 8.50422 19.8687 5.86464 17.235 3.21922C17.0702 3.05297 16.8397 2.93047 16.7902 2.66797H18.3929H18.3943Z" fill="#FEC900"/>
<path id="Vector_10" d="M25.533 25.4777C25.7969 25.2021 26.0594 24.925 26.3234 24.6494C26.1819 25.0402 25.8815 25.2809 25.533 25.4777Z" fill="#DDF5FD"/>
</g>
</g>
</g>
<defs>
<filter id="filter0_d_1307_10213" x="0" y="0.820312" width="33" height="32.3589" filterUnits="userSpaceOnUse" color-interpolation-filters="sRGB">
<feFlood flood-opacity="0" result="BackgroundImageFix"/>
<feColorMatrix in="SourceAlpha" type="matrix" values="0 0 0 0 0 0 0 0 0 0 0 0 0 0 0 0 0 0 127 0" result="hardAlpha"/>
<feOffset dy="1"/>
<feGaussianBlur stdDeviation="2"/>
<feComposite in2="hardAlpha" operator="out"/>
<feColorMatrix type="matrix" values="0 0 0 0 0 0 0 0 0 0 0 0 0 0 0 0 0 0 0.43 0"/>
<feBlend mode="normal" in2="BackgroundImageFix" result="effect1_dropShadow_1307_10213"/>
<feBlend mode="normal" in="SourceGraphic" in2="effect1_dropShadow_1307_10213" result="shape"/>
</filter>
<clipPath id="clip0_1307_10213">
<path d="M4 15.9998C4 9.27326 9.45294 3.82031 16.1795 3.82031H16.8205C23.5471 3.82031 29 9.27326 29 15.9998V15.9998C29 22.7263 23.5471 28.1793 16.8205 28.1793H16.1795C9.45294 28.1793 4 22.7263 4 15.9998V15.9998Z" fill="white"/>
</clipPath>
</defs>
</svg>
