<svg width="32" height="28" viewBox="0 0 32 28" fill="none" xmlns="http://www.w3.org/2000/svg">
<path d="M16.7945 7.43506L16.702 7.40748C16.4511 7.33264 16.3079 7.06871 16.3828 6.81745L16.7945 7.43506ZM16.7945 7.43506L16.8023 7.42605M16.7945 7.43506L16.8023 7.42605M16.8023 7.42605C17.0207 7.44264 17.2277 7.3054 17.2922 7.08794C17.8011 5.37776 19.4053 4.18249 21.1919 4.18249C21.4539 4.18249 21.6664 3.97001 21.6664 3.70802C21.6664 3.44601 21.4539 3.23354 21.1919 3.23354C18.9128 3.23354 16.9978 4.75103 16.3828 6.81737L16.8023 7.42605Z" fill="#003871" stroke="#F9FFF9" stroke-width="0.3"/>
<path d="M25.7342 19.607H23.7874C23.6083 19.607 23.4629 19.4617 23.4629 19.2826C23.4629 19.1034 23.6082 18.9581 23.7874 18.9581H25.7342C28.4177 18.9581 30.6012 16.7746 30.6012 14.0911C30.6012 11.4075 28.4177 9.22409 25.7342 9.22409H25.6874C25.5933 9.22409 25.5038 9.1833 25.4422 9.11215C25.3805 9.041 25.3527 8.94667 25.3661 8.85351C25.3951 8.65141 25.4097 8.44839 25.4097 8.2507C25.4097 5.92497 23.5173 4.0326 21.1916 4.0326C20.2868 4.0326 19.424 4.31535 18.6962 4.85049C18.5363 4.96799 18.3092 4.91584 18.2167 4.73993C16.1556 0.81529 10.7724 0.288251 7.98146 3.70235C6.80575 5.14066 6.3438 7.01167 6.71396 8.83521C6.75476 9.03661 6.60063 9.22434 6.39599 9.22434H6.26597C3.58242 9.22434 1.39897 11.4078 1.39897 14.0913C1.39897 16.7749 3.58242 18.9583 6.26597 18.9583H8.21274C8.39189 18.9583 8.53721 19.1037 8.53721 19.2828C8.53721 19.462 8.3919 19.6073 8.21274 19.6073H6.26597C3.22453 19.6073 0.75 17.1328 0.75 14.0913C0.75 11.1352 3.08753 8.71466 6.01126 8.58117C5.73662 6.68927 6.2618 4.78094 7.47899 3.29167C10.4671 -0.363906 16.1936 0.045835 18.6143 4.12207C19.3865 3.63791 20.2702 3.38393 21.1915 3.38393C24.0093 3.38393 26.2421 5.78222 26.0467 8.58419C28.9435 8.74666 31.25 11.1544 31.25 14.0911C31.25 17.1328 28.7756 19.607 25.7342 19.607Z" fill="#003871"/>
<path d="M7.69473 19.0993C7.69473 23.655 11.4008 27.3611 15.9565 27.3611C20.5122 27.3611 24.2183 23.655 24.2183 19.0993C24.2183 14.5436 20.5122 10.8375 15.9565 10.8375C11.4008 10.8375 7.69473 14.5437 7.69473 19.0993ZM8.64381 19.0993C8.64381 15.0673 11.9244 11.7866 15.9565 11.7866C19.9885 11.7866 23.2692 15.0672 23.2692 19.0993C23.2692 23.1313 19.9885 26.412 15.9565 26.412C11.9245 26.412 8.64381 23.1314 8.64381 19.0993Z" fill="#003871" stroke="#F9FFF9" stroke-width="0.3"/>
<path d="M15.7172 22.3647C15.7172 22.5788 15.8907 22.7523 16.1047 22.7523C16.3187 22.7523 16.4923 22.579 16.4923 22.3647V16.1885C16.4923 15.9745 16.3187 15.8009 16.1047 15.8009C15.8907 15.8009 15.7172 15.9745 15.7172 16.1885V22.3647Z" fill="#003871" stroke="#003871" stroke-width="0.3"/>
<path d="M16.1047 16.7373L14.4785 18.3636C14.4785 18.3636 14.4785 18.3636 14.4784 18.3636C14.4784 18.3636 14.4784 18.3636 14.4784 18.3636C14.3271 18.5151 14.0816 18.515 13.9303 18.3636C13.7789 18.2123 13.7789 17.9669 13.9303 17.8156L15.8306 15.9153C15.8306 15.9153 15.8306 15.9153 15.8306 15.9152L16.1047 16.7373ZM16.1047 16.7373L17.7311 18.3636C17.7311 18.3636 17.7311 18.3636 17.7311 18.3636C17.8067 18.4392 17.9062 18.4771 18.0051 18.4772L16.1047 16.7373Z" fill="#003871" stroke="#003871" stroke-width="0.3"/>
</svg>
