<svg width="33" height="32" viewBox="0 0 33 32" fill="none" xmlns="http://www.w3.org/2000/svg">
<path d="M24.3984 6.34473H8.20044C6.39444 6.34473 4.92444 7.81356 4.92444 9.61956V24.1982C4.92444 24.7197 5.20561 25.2051 5.65944 25.4641C5.88227 25.5912 6.13311 25.6554 6.38277 25.6554C6.63944 25.6554 6.89494 25.5877 7.12361 25.4547L10.5478 23.4364C11.1311 23.0934 11.7961 22.9114 12.4728 22.9114H24.3996C26.2056 22.9114 27.6756 21.4426 27.6756 19.6366V9.62073C27.6756 7.81473 26.2056 6.34589 24.3996 6.34589L24.3984 6.34473Z" fill="#ABC1DC"/>
<path d="M22.1327 13.0029H10.4661C9.98306 13.0029 9.59106 12.6109 9.59106 12.1279C9.59106 11.6449 9.98306 11.2529 10.4661 11.2529H22.1327C22.6157 11.2529 23.0077 11.6449 23.0077 12.1279C23.0077 12.6109 22.6157 13.0029 22.1327 13.0029ZM19.5077 16.7946C19.5077 16.3116 19.1157 15.9196 18.6327 15.9196H10.4661C9.98306 15.9196 9.59106 16.3116 9.59106 16.7946C9.59106 17.2776 9.98306 17.6696 10.4661 17.6696H18.6327C19.1157 17.6696 19.5077 17.2776 19.5077 16.7946Z" fill="#2E4053"/>
</svg>
