<svg width="33" height="32" viewBox="0 0 33 32" fill="none" xmlns="http://www.w3.org/2000/svg">
<path d="M24.7182 9.34337L20.0191 4.7487C19.9459 4.67773 19.8592 4.62158 19.7637 4.58347C19.6683 4.54536 19.5661 4.52604 19.4631 4.52662H10.0649C9.44174 4.52662 8.84412 4.76866 8.4035 5.1995C7.96287 5.63033 7.71533 6.21467 7.71533 6.82396V25.2026C7.71533 25.8119 7.96287 26.3963 8.4035 26.8271C8.84412 27.2579 9.44174 27.5 10.0649 27.5H22.5958C23.2189 27.5 23.8166 27.2579 24.2572 26.8271C24.6978 26.3963 24.9453 25.8119 24.9453 25.2026V9.88707C24.9459 9.78629 24.9262 9.68639 24.8872 9.59309C24.8482 9.49979 24.7908 9.41493 24.7182 9.34337Z" fill="#ABC1DC"/>
<path d="M25.5521 9.88707V25.2026C25.5521 25.8119 25.2836 26.3963 24.8057 26.8271C24.3279 27.2579 23.6797 27.5 23.0039 27.5H16.209V4.52662H19.6065C19.7182 4.52604 19.8291 4.54536 19.9325 4.58347C20.036 4.62158 20.1302 4.67773 20.2095 4.7487L25.3057 9.34337C25.3845 9.41493 25.4467 9.49979 25.489 9.59309C25.5313 9.68639 25.5527 9.78629 25.5521 9.88707Z" fill="#8AA5C6"/>
<path d="M20.5092 4.73863C20.4323 4.66237 20.3411 4.60204 20.2409 4.56109C20.1406 4.52014 20.0333 4.49939 19.925 4.50001H19.1022V10.0623C19.1043 10.3323 19.2125 10.5905 19.4034 10.7814C19.5943 10.9723 19.8525 11.0805 20.1225 11.0826H25.6848V10.2598C25.6854 10.1515 25.6647 10.0442 25.6237 9.94392C25.5828 9.84367 25.5224 9.75249 25.4462 9.6756L20.5092 4.73863Z" fill="#D6B5B0"/>
<path d="M16.6337 13.0809H11.6967C11.4785 13.0809 11.2692 12.9819 11.1149 12.8055C10.9606 12.6292 10.8739 12.39 10.8739 12.1406C10.8739 11.8912 10.9606 11.652 11.1149 11.4756C11.2692 11.2993 11.4785 11.2002 11.6967 11.2002H16.6337C16.8519 11.2002 17.0612 11.2993 17.2155 11.4756C17.3698 11.652 17.4565 11.8912 17.4565 12.1406C17.4565 12.39 17.3698 12.6292 17.2155 12.8055C17.0612 12.9819 16.8519 13.0809 16.6337 13.0809ZM21.5707 17.7828H11.6967C11.4785 17.7828 11.2692 17.6837 11.1149 17.5074C10.9606 17.331 10.8739 17.0918 10.8739 16.8424C10.8739 16.593 10.9606 16.3539 11.1149 16.1775C11.2692 16.0011 11.4785 15.9021 11.6967 15.9021H21.5707C21.7889 15.9021 21.9982 16.0011 22.1525 16.1775C22.3068 16.3539 22.3935 16.593 22.3935 16.8424C22.3935 17.0918 22.3068 17.331 22.1525 17.5074C21.9982 17.6837 21.7889 17.7828 21.5707 17.7828ZM21.5707 22.4847H11.6967C11.4785 22.4847 11.2692 22.3856 11.1149 22.2093C10.9606 22.0329 10.8739 21.7937 10.8739 21.5443C10.8739 21.2949 10.9606 21.0557 11.1149 20.8794C11.2692 20.703 11.4785 20.6039 11.6967 20.6039H21.5707C21.7889 20.6039 21.9982 20.703 22.1525 20.8794C22.3068 21.0557 22.3935 21.2949 22.3935 21.5443C22.3935 21.7937 22.3068 22.0329 22.1525 22.2093C21.9982 22.3856 21.7889 22.4847 21.5707 22.4847Z" fill="#EEF5FD"/>
<path d="M20.5092 4.73863C20.4323 4.66237 20.3411 4.60204 20.2409 4.56109C20.1406 4.52014 20.0333 4.49939 19.925 4.50001H19.1022V10.0623C19.1043 10.3323 19.2125 10.5905 19.4034 10.7814C19.5943 10.9723 19.8525 11.0805 20.1225 11.0826H25.6848V10.2598C25.6854 10.1515 25.6647 10.0442 25.6237 9.94392C25.5828 9.84367 25.5224 9.75249 25.4462 9.6756L20.5092 4.73863Z" fill="#2E4053"/>
<path d="M17.4566 12.1406C17.4566 12.39 17.3699 12.6292 17.2156 12.8055C17.0613 12.9819 16.852 13.0809 16.6338 13.0809V11.2002C16.852 11.2002 17.0613 11.2993 17.2156 11.4756C17.3699 11.652 17.4566 11.8912 17.4566 12.1406ZM22.3936 16.8424C22.3936 17.0918 22.3069 17.331 22.1526 17.5074C21.9983 17.6837 21.789 17.7828 21.5708 17.7828H16.6338V15.9021H21.5708C21.789 15.9021 21.9983 16.0011 22.1526 16.1775C22.3069 16.3539 22.3936 16.593 22.3936 16.8424ZM22.3936 21.5443C22.3936 21.7937 22.3069 22.0329 22.1526 22.2093C21.9983 22.3856 21.789 22.4847 21.5708 22.4847H16.6338V20.6039H21.5708C21.789 20.6039 21.9983 20.703 22.1526 20.8794C22.3069 21.0557 22.3936 21.2949 22.3936 21.5443Z" fill="#D7E2F2"/>
</svg>
