<svg width="33" height="32" viewBox="0 0 33 32" fill="none" xmlns="http://www.w3.org/2000/svg">
<g filter="url(#filter0_i_1953_3600)">
<path d="M10.5289 11.904H14.0377C14.1678 11.9039 14.2959 11.873 14.4118 11.8139C14.5276 11.7548 14.6278 11.6691 14.7041 11.5638L16.9939 8.40503" stroke="#D2C2D4" stroke-width="1.4"/>
<path d="M10.5289 11.904H14.0377C14.1678 11.9039 14.2959 11.873 14.4118 11.8139C14.5276 11.7548 14.6278 11.6691 14.7041 11.5638L16.9939 8.40503" stroke="url(#paint0_radial_1953_3600)" stroke-width="1.4"/>
</g>
<path d="M10.5289 11.904H14.0377C14.1678 11.9039 14.2959 11.873 14.4118 11.8139C14.5276 11.7548 14.6278 11.6691 14.7041 11.5638L16.9939 8.40503" stroke="#89919B" stroke-width="1.4"/>
<path d="M23.285 11.904H19.7762C19.646 11.904 19.5177 11.8732 19.4017 11.8141C19.2857 11.7549 19.1854 11.6692 19.109 11.5638L16.8192 8.40503" stroke="#D2C2D4" stroke-width="1.4"/>
<path d="M23.285 11.904H19.7762C19.646 11.904 19.5177 11.8732 19.4017 11.8141C19.2857 11.7549 19.1854 11.6692 19.109 11.5638L16.8192 8.40503" stroke="#89919B" stroke-width="1.4"/>
<path d="M10.3376 12.8667V20.0721" stroke="#89919B"/>
<path d="M14.8145 19.6825L10.5289 12.8667" stroke="url(#paint1_linear_1953_3600)"/>
<path d="M14.8145 19.6825L10.5289 12.8667" stroke="#89919B"/>
<path d="M23.4529 12.8667V20.0721" stroke="#89919B"/>
<path d="M19.0233 19.6825L23.3097 12.8667" stroke="#89919B"/>
<path d="M27.9304 19.6825L23.644 12.8667" stroke="url(#paint2_linear_1953_3600)"/>
<path d="M27.9304 19.6825L23.644 12.8667" stroke="#89919B"/>
<path d="M23.4767 13.2241C24.2168 13.2241 24.8168 12.6242 24.8168 11.884C24.8168 11.1439 24.2168 10.5439 23.4767 10.5439C22.7366 10.5439 22.1366 11.1439 22.1366 11.884C22.1366 12.6242 22.7366 13.2241 23.4767 13.2241Z" fill="url(#paint3_radial_1953_3600)"/>
<path d="M23.4767 13.2241C24.2168 13.2241 24.8168 12.6242 24.8168 11.884C24.8168 11.1439 24.2168 10.5439 23.4767 10.5439C22.7366 10.5439 22.1366 11.1439 22.1366 11.884C22.1366 12.6242 22.7366 13.2241 23.4767 13.2241Z" fill="url(#paint4_radial_1953_3600)"/>
<path d="M23.4767 13.2241C24.2168 13.2241 24.8168 12.6242 24.8168 11.884C24.8168 11.1439 24.2168 10.5439 23.4767 10.5439C22.7366 10.5439 22.1366 11.1439 22.1366 11.884C22.1366 12.6242 22.7366 13.2241 23.4767 13.2241Z" fill="#2E4053"/>
<path d="M19.0373 19.2922C18.6963 19.2922 18.441 19.6085 18.5555 19.9306C18.9166 20.947 19.5836 21.8266 20.4648 22.4487C21.346 23.0707 22.3982 23.4047 23.4768 23.4047C24.5555 23.4047 25.6077 23.0707 26.4889 22.4487C27.3701 21.8266 28.0371 20.947 28.3982 19.9306C28.5127 19.6093 28.2574 19.2922 27.9164 19.2922H19.0373Z" fill="url(#paint5_radial_1953_3600)"/>
<path d="M19.0373 19.2922C18.6963 19.2922 18.441 19.6085 18.5555 19.9306C18.9166 20.947 19.5836 21.8266 20.4648 22.4487C21.346 23.0707 22.3982 23.4047 23.4768 23.4047C24.5555 23.4047 25.6077 23.0707 26.4889 22.4487C27.3701 21.8266 28.0371 20.947 28.3982 19.9306C28.5127 19.6093 28.2574 19.2922 27.9164 19.2922H19.0373Z" fill="url(#paint6_linear_1953_3600)"/>
<path d="M19.0373 19.2922C18.6963 19.2922 18.441 19.6085 18.5555 19.9306C18.9166 20.947 19.5836 21.8266 20.4648 22.4487C21.346 23.0707 22.3982 23.4047 23.4768 23.4047C24.5555 23.4047 25.6077 23.0707 26.4889 22.4487C27.3701 21.8266 28.0371 20.947 28.3982 19.9306C28.5127 19.6093 28.2574 19.2922 27.9164 19.2922H19.0373Z" fill="url(#paint7_radial_1953_3600)"/>
<path d="M19.0373 19.2922C18.6963 19.2922 18.441 19.6085 18.5555 19.9306C18.9166 20.947 19.5836 21.8266 20.4648 22.4487C21.346 23.0707 22.3982 23.4047 23.4768 23.4047C24.5555 23.4047 25.6077 23.0707 26.4889 22.4487C27.3701 21.8266 28.0371 20.947 28.3982 19.9306C28.5127 19.6093 28.2574 19.2922 27.9164 19.2922H19.0373Z" fill="url(#paint8_radial_1953_3600)"/>
<path d="M19.0373 19.2922C18.6963 19.2922 18.441 19.6085 18.5555 19.9306C18.9166 20.947 19.5836 21.8266 20.4648 22.4487C21.346 23.0707 22.3982 23.4047 23.4768 23.4047C24.5555 23.4047 25.6077 23.0707 26.4889 22.4487C27.3701 21.8266 28.0371 20.947 28.3982 19.9306C28.5127 19.6093 28.2574 19.2922 27.9164 19.2922H19.0373Z" fill="url(#paint9_radial_1953_3600)"/>
<path d="M19.0373 19.2922C18.6963 19.2922 18.441 19.6085 18.5555 19.9306C18.9166 20.947 19.5836 21.8266 20.4648 22.4487C21.346 23.0707 22.3982 23.4047 23.4768 23.4047C24.5555 23.4047 25.6077 23.0707 26.4889 22.4487C27.3701 21.8266 28.0371 20.947 28.3982 19.9306C28.5127 19.6093 28.2574 19.2922 27.9164 19.2922H19.0373Z" fill="#ABC1DC"/>
<path d="M5.90796 19.6825L10.1943 12.8667" stroke="#89919B"/>
<path d="M5.88415 19.2922C5.54233 19.2922 5.28781 19.6085 5.40148 19.9306C5.76264 20.947 6.42963 21.8266 7.31083 22.4487C8.19204 23.0707 9.24423 23.4047 10.3229 23.4047C11.4015 23.4047 12.4537 23.0707 13.3349 22.4487C14.2161 21.8266 14.8831 20.947 15.2443 19.9306C15.3588 19.6093 15.1042 19.2922 14.7624 19.2922H5.88415Z" fill="url(#paint10_radial_1953_3600)"/>
<path d="M5.88415 19.2922C5.54233 19.2922 5.28781 19.6085 5.40148 19.9306C5.76264 20.947 6.42963 21.8266 7.31083 22.4487C8.19204 23.0707 9.24423 23.4047 10.3229 23.4047C11.4015 23.4047 12.4537 23.0707 13.3349 22.4487C14.2161 21.8266 14.8831 20.947 15.2443 19.9306C15.3588 19.6093 15.1042 19.2922 14.7624 19.2922H5.88415Z" fill="url(#paint11_linear_1953_3600)"/>
<path d="M5.88415 19.2922C5.54233 19.2922 5.28781 19.6085 5.40148 19.9306C5.76264 20.947 6.42963 21.8266 7.31083 22.4487C8.19204 23.0707 9.24423 23.4047 10.3229 23.4047C11.4015 23.4047 12.4537 23.0707 13.3349 22.4487C14.2161 21.8266 14.8831 20.947 15.2443 19.9306C15.3588 19.6093 15.1042 19.2922 14.7624 19.2922H5.88415Z" fill="url(#paint12_radial_1953_3600)"/>
<path d="M5.88415 19.2922C5.54233 19.2922 5.28781 19.6085 5.40148 19.9306C5.76264 20.947 6.42963 21.8266 7.31083 22.4487C8.19204 23.0707 9.24423 23.4047 10.3229 23.4047C11.4015 23.4047 12.4537 23.0707 13.3349 22.4487C14.2161 21.8266 14.8831 20.947 15.2443 19.9306C15.3588 19.6093 15.1042 19.2922 14.7624 19.2922H5.88415Z" fill="url(#paint13_radial_1953_3600)"/>
<path d="M5.88415 19.2922C5.54233 19.2922 5.28781 19.6085 5.40148 19.9306C5.76264 20.947 6.42963 21.8266 7.31083 22.4487C8.19204 23.0707 9.24423 23.4047 10.3229 23.4047C11.4015 23.4047 12.4537 23.0707 13.3349 22.4487C14.2161 21.8266 14.8831 20.947 15.2443 19.9306C15.3588 19.6093 15.1042 19.2922 14.7624 19.2922H5.88415Z" fill="url(#paint14_radial_1953_3600)"/>
<path d="M5.88415 19.2922C5.54233 19.2922 5.28781 19.6085 5.40148 19.9306C5.76264 20.947 6.42963 21.8266 7.31083 22.4487C8.19204 23.0707 9.24423 23.4047 10.3229 23.4047C11.4015 23.4047 12.4537 23.0707 13.3349 22.4487C14.2161 21.8266 14.8831 20.947 15.2443 19.9306C15.3588 19.6093 15.1042 19.2922 14.7624 19.2922H5.88415Z" fill="#ABC1DC"/>
<path d="M10.3229 13.2241C11.063 13.2241 11.663 12.6242 11.663 11.884C11.663 11.1439 11.063 10.5439 10.3229 10.5439C9.58277 10.5439 8.98279 11.1439 8.98279 11.884C8.98279 12.6242 9.58277 13.2241 10.3229 13.2241Z" fill="url(#paint15_radial_1953_3600)"/>
<path d="M10.3229 13.2241C11.063 13.2241 11.663 12.6242 11.663 11.884C11.663 11.1439 11.063 10.5439 10.3229 10.5439C9.58277 10.5439 8.98279 11.1439 8.98279 11.884C8.98279 12.6242 9.58277 13.2241 10.3229 13.2241Z" fill="url(#paint16_radial_1953_3600)"/>
<path d="M10.3229 13.2241C11.063 13.2241 11.663 12.6242 11.663 11.884C11.663 11.1439 11.063 10.5439 10.3229 10.5439C9.58277 10.5439 8.98279 11.1439 8.98279 11.884C8.98279 12.6242 9.58277 13.2241 10.3229 13.2241Z" fill="#2E4053"/>
<g filter="url(#filter1_f_1953_3600)">
<path d="M17.2754 8.54761L19.5536 11.6882" stroke="#89919B" stroke-width="0.4" stroke-linecap="round"/>
</g>
<path d="M16.8999 6.4248V24.7793" stroke="url(#paint17_linear_1953_3600)" stroke-width="1.5"/>
<path d="M16.8999 6.4248V24.7793" stroke="url(#paint18_radial_1953_3600)" stroke-width="1.5"/>
<path d="M16.8999 6.4248V24.7793" stroke="url(#paint19_linear_1953_3600)" stroke-width="1.5"/>
<path d="M16.8999 6.4248V24.7793" stroke="#89919B" stroke-width="1.5"/>
<path d="M22.822 27.4998C23.3492 27.4998 23.6185 26.8928 23.2215 26.5444C21.4762 25.0041 19.2277 24.1554 16.8999 24.1582C14.572 24.1548 12.3233 25.0029 10.5774 26.5427C10.1821 26.892 10.4498 27.4982 10.9777 27.4982L22.822 27.4998Z" fill="url(#paint20_linear_1953_3600)"/>
<path d="M22.822 27.4998C23.3492 27.4998 23.6185 26.8928 23.2215 26.5444C21.4762 25.0041 19.2277 24.1554 16.8999 24.1582C14.572 24.1548 12.3233 25.0029 10.5774 26.5427C10.1821 26.892 10.4498 27.4982 10.9777 27.4982L22.822 27.4998Z" fill="url(#paint21_radial_1953_3600)"/>
<path d="M22.822 27.4998C23.3492 27.4998 23.6185 26.8928 23.2215 26.5444C21.4762 25.0041 19.2277 24.1554 16.8999 24.1582C14.572 24.1548 12.3233 25.0029 10.5774 26.5427C10.1821 26.892 10.4498 27.4982 10.9777 27.4982L22.822 27.4998Z" fill="url(#paint22_linear_1953_3600)"/>
<path d="M22.822 27.4998C23.3492 27.4998 23.6185 26.8928 23.2215 26.5444C21.4762 25.0041 19.2277 24.1554 16.8999 24.1582C14.572 24.1548 12.3233 25.0029 10.5774 26.5427C10.1821 26.892 10.4498 27.4982 10.9777 27.4982L22.822 27.4998Z" fill="url(#paint23_radial_1953_3600)"/>
<path d="M22.822 27.4998C23.3492 27.4998 23.6185 26.8928 23.2215 26.5444C21.4762 25.0041 19.2277 24.1554 16.8999 24.1582C14.572 24.1548 12.3233 25.0029 10.5774 26.5427C10.1821 26.892 10.4498 27.4982 10.9777 27.4982L22.822 27.4998Z" fill="#ABC1DC"/>
<path d="M16.8998 7.1802C17.6399 7.1802 18.2399 6.58022 18.2399 5.8401C18.2399 5.09998 17.6399 4.5 16.8998 4.5C16.1597 4.5 15.5597 5.09998 15.5597 5.8401C15.5597 6.58022 16.1597 7.1802 16.8998 7.1802Z" fill="url(#paint24_radial_1953_3600)"/>
<path d="M16.8998 7.1802C17.6399 7.1802 18.2399 6.58022 18.2399 5.8401C18.2399 5.09998 17.6399 4.5 16.8998 4.5C16.1597 4.5 15.5597 5.09998 15.5597 5.8401C15.5597 6.58022 16.1597 7.1802 16.8998 7.1802Z" fill="url(#paint25_radial_1953_3600)"/>
<path d="M16.8998 7.1802C17.6399 7.1802 18.2399 6.58022 18.2399 5.8401C18.2399 5.09998 17.6399 4.5 16.8998 4.5C16.1597 4.5 15.5597 5.09998 15.5597 5.8401C15.5597 6.58022 16.1597 7.1802 16.8998 7.1802Z" fill="#2E4053"/>
<defs>
<filter id="filter0_i_1953_3600" x="10.0289" y="7.49414" width="7.53174" height="5.10986" filterUnits="userSpaceOnUse" color-interpolation-filters="sRGB">
<feFlood flood-opacity="0" result="BackgroundImageFix"/>
<feBlend mode="normal" in="SourceGraphic" in2="BackgroundImageFix" result="shape"/>
<feColorMatrix in="SourceAlpha" type="matrix" values="0 0 0 0 0 0 0 0 0 0 0 0 0 0 0 0 0 0 127 0" result="hardAlpha"/>
<feOffset dx="-0.5" dy="-0.5"/>
<feGaussianBlur stdDeviation="0.5"/>
<feComposite in2="hardAlpha" operator="arithmetic" k2="-1" k3="1"/>
<feColorMatrix type="matrix" values="0 0 0 0 0.682353 0 0 0 0 0.588235 0 0 0 0 0.694118 0 0 0 1 0"/>
<feBlend mode="normal" in2="shape" result="effect1_innerShadow_1953_3600"/>
</filter>
<filter id="filter1_f_1953_3600" x="16.6753" y="7.94766" width="3.47834" height="4.34053" filterUnits="userSpaceOnUse" color-interpolation-filters="sRGB">
<feFlood flood-opacity="0" result="BackgroundImageFix"/>
<feBlend mode="normal" in="SourceGraphic" in2="BackgroundImageFix" result="shape"/>
<feGaussianBlur stdDeviation="0.2" result="effect1_foregroundBlur_1953_3600"/>
</filter>
<radialGradient id="paint0_radial_1953_3600" cx="0" cy="0" r="1" gradientUnits="userSpaceOnUse" gradientTransform="translate(11.3386 11.904) scale(1.15828 2.03574)">
<stop offset="0.289" stop-color="#BDAAB9"/>
<stop offset="1" stop-color="#BDAAB9" stop-opacity="0"/>
</radialGradient>
<linearGradient id="paint1_linear_1953_3600" x1="12.3723" y1="16.2742" x2="12.9769" y2="15.8451" gradientUnits="userSpaceOnUse">
<stop offset="0.175" stop-color="#D0B6C3"/>
<stop offset="1" stop-color="#E6D2E4"/>
</linearGradient>
<linearGradient id="paint2_linear_1953_3600" x1="25.4874" y1="16.2742" x2="26.092" y2="15.8451" gradientUnits="userSpaceOnUse">
<stop offset="0.175" stop-color="#D0B6C3"/>
<stop offset="1" stop-color="#E6D2E4"/>
</linearGradient>
<radialGradient id="paint3_radial_1953_3600" cx="0" cy="0" r="1" gradientUnits="userSpaceOnUse" gradientTransform="translate(24.2313 11.2126) rotate(110.554) scale(2.14887 2.2369)">
<stop offset="0.319" stop-color="#FFC539"/>
<stop offset="1" stop-color="#F6973E"/>
</radialGradient>
<radialGradient id="paint4_radial_1953_3600" cx="0" cy="0" r="1" gradientUnits="userSpaceOnUse" gradientTransform="translate(24.8167 11.149) rotate(134.483) scale(1.47136 1.58745)">
<stop stop-color="#FFF361"/>
<stop offset="1" stop-color="#FFF361" stop-opacity="0"/>
</radialGradient>
<radialGradient id="paint5_radial_1953_3600" cx="0" cy="0" r="1" gradientUnits="userSpaceOnUse" gradientTransform="translate(23.4768 19.4487) rotate(90) scale(3.95579 7.3588)">
<stop offset="0.482" stop-color="#FFB85E"/>
<stop offset="1" stop-color="#FF9D5B"/>
</radialGradient>
<linearGradient id="paint6_linear_1953_3600" x1="23.4768" y1="19.2922" x2="23.4768" y2="20.246" gradientUnits="userSpaceOnUse">
<stop stop-color="#FFCF4D"/>
<stop offset="1" stop-color="#FFCF4D" stop-opacity="0"/>
</linearGradient>
<radialGradient id="paint7_radial_1953_3600" cx="0" cy="0" r="1" gradientUnits="userSpaceOnUse" gradientTransform="translate(27.3407 18.831) rotate(126.87) scale(4.50442 2.99094)">
<stop stop-color="#FFC635"/>
<stop offset="1" stop-color="#FFC635" stop-opacity="0"/>
</radialGradient>
<radialGradient id="paint8_radial_1953_3600" cx="0" cy="0" r="1" gradientUnits="userSpaceOnUse" gradientTransform="translate(23.4768 19.7057) rotate(90) scale(3.69839 7.12714)">
<stop offset="0.592" stop-color="#FD9860" stop-opacity="0"/>
<stop offset="1" stop-color="#F18E9D"/>
</radialGradient>
<radialGradient id="paint9_radial_1953_3600" cx="0" cy="0" r="1" gradientUnits="userSpaceOnUse" gradientTransform="translate(22.3983 18.9077) rotate(52.677) scale(5.85849 8.17114)">
<stop offset="0.827" stop-color="#FFB651" stop-opacity="0"/>
<stop offset="1" stop-color="#E29471"/>
</radialGradient>
<radialGradient id="paint10_radial_1953_3600" cx="0" cy="0" r="1" gradientUnits="userSpaceOnUse" gradientTransform="translate(10.3229 19.4487) rotate(90) scale(3.95579 7.3588)">
<stop offset="0.482" stop-color="#FFB85E"/>
<stop offset="1" stop-color="#FF9D5B"/>
</radialGradient>
<linearGradient id="paint11_linear_1953_3600" x1="10.3229" y1="19.2922" x2="10.3229" y2="20.246" gradientUnits="userSpaceOnUse">
<stop stop-color="#FFCF4D"/>
<stop offset="1" stop-color="#FFCF4D" stop-opacity="0"/>
</linearGradient>
<radialGradient id="paint12_radial_1953_3600" cx="0" cy="0" r="1" gradientUnits="userSpaceOnUse" gradientTransform="translate(14.1867 18.831) rotate(126.87) scale(4.50442 2.99094)">
<stop stop-color="#FFC635"/>
<stop offset="1" stop-color="#FFC635" stop-opacity="0"/>
</radialGradient>
<radialGradient id="paint13_radial_1953_3600" cx="0" cy="0" r="1" gradientUnits="userSpaceOnUse" gradientTransform="translate(13.62 19.7057) rotate(90) scale(0.926623 6.857)">
<stop stop-color="#FFF263"/>
<stop offset="1" stop-color="#FFD049" stop-opacity="0"/>
</radialGradient>
<radialGradient id="paint14_radial_1953_3600" cx="0" cy="0" r="1" gradientUnits="userSpaceOnUse" gradientTransform="translate(10.3229 19.7057) rotate(90) scale(3.69839 7.12714)">
<stop offset="0.592" stop-color="#FD9860" stop-opacity="0"/>
<stop offset="1" stop-color="#F18E9D"/>
</radialGradient>
<radialGradient id="paint15_radial_1953_3600" cx="0" cy="0" r="1" gradientUnits="userSpaceOnUse" gradientTransform="translate(11.0773 11.2124) rotate(110.554) scale(2.14887 2.2369)">
<stop offset="0.319" stop-color="#FFC539"/>
<stop offset="1" stop-color="#F6973E"/>
</radialGradient>
<radialGradient id="paint16_radial_1953_3600" cx="0" cy="0" r="1" gradientUnits="userSpaceOnUse" gradientTransform="translate(11.6628 11.1487) rotate(134.483) scale(1.47136 1.58745)">
<stop stop-color="#FFF361"/>
<stop offset="1" stop-color="#FFF361" stop-opacity="0"/>
</radialGradient>
<linearGradient id="paint17_linear_1953_3600" x1="-nan" y1="-nan" x2="-nan" y2="-nan" gradientUnits="userSpaceOnUse">
<stop stop-color="#C3AEC2"/>
<stop offset="1" stop-color="#E7D3E6"/>
</linearGradient>
<radialGradient id="paint18_radial_1953_3600" cx="0" cy="0" r="1" gradientUnits="userSpaceOnUse" gradientTransform="translate(-nan -nan) rotate(-nan) scale(-nan -nan)">
<stop stop-color="#B59CAD"/>
<stop offset="1" stop-color="#B59CAD" stop-opacity="0"/>
</radialGradient>
<linearGradient id="paint19_linear_1953_3600" x1="-nan" y1="-nan" x2="-nan" y2="-nan" gradientUnits="userSpaceOnUse">
<stop stop-color="#BC9EA3"/>
<stop offset="1" stop-color="#BC9EA3" stop-opacity="0"/>
</linearGradient>
<linearGradient id="paint20_linear_1953_3600" x1="16.8999" y1="24.159" x2="16.8999" y2="27.2988" gradientUnits="userSpaceOnUse">
<stop offset="0.254" stop-color="#F9C63C"/>
<stop offset="0.754" stop-color="#FFCE37"/>
</linearGradient>
<radialGradient id="paint21_radial_1953_3600" cx="0" cy="0" r="1" gradientUnits="userSpaceOnUse" gradientTransform="translate(23.0156 27.3244) rotate(180) scale(6.11549 2.2136)">
<stop stop-color="#FFFF64"/>
<stop offset="1" stop-color="#FFFF64" stop-opacity="0"/>
</radialGradient>
<linearGradient id="paint22_linear_1953_3600" x1="18.2795" y1="27.4998" x2="18.2795" y2="26.887" gradientUnits="userSpaceOnUse">
<stop stop-color="#FA8694"/>
<stop offset="1" stop-color="#FFA166" stop-opacity="0"/>
</linearGradient>
<radialGradient id="paint23_radial_1953_3600" cx="0" cy="0" r="1" gradientUnits="userSpaceOnUse" gradientTransform="translate(16.3744 28.3284) rotate(-107.43) scale(4.64026 13.4179)">
<stop offset="0.57" stop-color="#EB9E40" stop-opacity="0"/>
<stop offset="1" stop-color="#EB9E40"/>
</radialGradient>
<radialGradient id="paint24_radial_1953_3600" cx="0" cy="0" r="1" gradientUnits="userSpaceOnUse" gradientTransform="translate(17.6541 5.16875) rotate(110.554) scale(2.14887 2.2369)">
<stop offset="0.319" stop-color="#FFC539"/>
<stop offset="1" stop-color="#F6973E"/>
</radialGradient>
<radialGradient id="paint25_radial_1953_3600" cx="0" cy="0" r="1" gradientUnits="userSpaceOnUse" gradientTransform="translate(18.2402 5.1047) rotate(134.483) scale(1.47136 1.58745)">
<stop stop-color="#FFF361"/>
<stop offset="1" stop-color="#FFF361" stop-opacity="0"/>
</radialGradient>
</defs>
</svg>
