<svg width="33" height="32" viewBox="0 0 33 32" fill="none" xmlns="http://www.w3.org/2000/svg">
<path d="M26.7376 4.5H5.56907C3.86004 4.5 2.47046 5.86296 2.47046 7.53472V24.3588C2.47046 26.0625 3.89199 27.5 5.56907 27.5H26.7376C28.388 27.5 29.7297 26.0891 29.7297 24.3588V7.53472C29.7297 5.83102 28.4147 4.5 26.7376 4.5ZM27.6001 24.3588C27.6001 24.9178 27.2114 25.3704 26.7376 25.3704H5.56907C5.06328 25.3704 4.60009 24.8859 4.60009 24.3588V7.53472C4.60009 7.03426 5.03666 6.62963 5.56907 6.62963H26.7376C27.2434 6.62963 27.6001 7.00231 27.6001 7.53472V24.3588Z" fill="#ABC1DC"/>
<path d="M11.8621 14.7512C12.0591 14.6389 12.2081 14.5536 12.3146 14.4907C12.5489 14.3559 12.9375 14.1268 12.9375 13.6506C12.9375 13.1565 12.4584 12.7522 11.8727 12.7522C11.6065 12.7522 11.3669 12.8331 11.1806 12.9678C10.8984 13.143 9.16277 14.1133 6.80953 15.4206C6.49541 15.5958 6.29842 15.8833 6.28777 16.1977C6.2718 16.5122 6.44217 16.8131 6.74032 17.0108L11.2232 19.9487C11.4149 20.0745 11.6491 20.1374 11.8781 20.1374C12.1975 20.1374 12.5116 20.0161 12.7193 19.7915C13.0813 19.4006 12.9961 18.8346 12.5329 18.5292L9.12018 16.292C9.54078 16.0584 10.0253 15.7889 10.4885 15.5284C11.0688 15.2049 11.532 14.9399 11.8621 14.7512ZM11.138 13.0038C11.1061 13.0307 11.0741 13.0577 11.0475 13.0846C11.0741 13.0532 11.1061 13.0262 11.138 13.0038Z" fill="#2E4053"/>
<path d="M25.4066 15.4792C23.048 14.1719 21.3177 13.1971 21.0355 13.0264C20.8492 12.8916 20.6096 12.8108 20.3434 12.8108C19.7577 12.8108 19.2786 13.2151 19.2786 13.7092C19.2786 14.1854 19.6672 14.4145 19.9015 14.5493C20.008 14.6122 20.157 14.6975 20.354 14.8098C20.6841 14.9985 21.1526 15.259 21.7383 15.587C22.2015 15.8475 22.6806 16.117 23.1066 16.3506L19.6938 18.5877C19.2306 18.8932 19.1455 19.4547 19.5075 19.85C19.7151 20.0792 20.0293 20.1959 20.3487 20.1959C20.5776 20.1959 20.8066 20.1331 21.0036 20.0073L25.4864 17.0694C25.7846 16.8717 25.955 16.5708 25.939 16.2563C25.9124 15.9418 25.7154 15.6499 25.4066 15.4792ZM21.0728 13.0534C21.1047 13.0758 21.1313 13.1073 21.1633 13.1342C21.1367 13.1073 21.1047 13.0803 21.0728 13.0534Z" fill="#2E4053"/>
<path d="M17.6547 11.3461C17.0851 11.2158 16.5047 11.5033 16.3503 11.9795L13.6777 20.4023C13.5233 20.883 13.864 21.3727 14.4283 21.5029C14.5189 21.5254 14.6147 21.5344 14.7052 21.5344C15.1737 21.5344 15.605 21.2693 15.7327 20.8695L18.4054 12.4467C18.5598 11.966 18.2244 11.4719 17.6547 11.3461Z" fill="#2E4053"/>
</svg>
