<svg width="33" height="32" viewBox="0 0 33 32" fill="none" xmlns="http://www.w3.org/2000/svg">
<path d="M25.1826 9.4165L20.2957 4.84033C20.2196 4.76965 20.1293 4.71372 20.0301 4.67577C19.9308 4.63781 19.8246 4.61857 19.7174 4.61915H9.94348C9.29543 4.61915 8.67392 4.86022 8.21568 5.28932C7.75744 5.71842 7.5 6.3004 7.5 6.90723V25.2119C7.5 25.8187 7.75744 26.4007 8.21568 26.8298C8.67392 27.2589 9.29543 27.5 9.94348 27.5H22.9753C23.6234 27.5 24.2449 27.2589 24.7031 26.8298C25.1614 26.4007 25.4188 25.8187 25.4188 25.2119V9.95801C25.4194 9.85763 25.3989 9.75813 25.3584 9.66521C25.3178 9.57228 25.2581 9.48776 25.1826 9.4165Z" fill="#ABC1DC"/>
<path d="M25.4189 9.95801V25.2119C25.4189 25.8187 25.1614 26.4007 24.7032 26.8298C24.245 27.2589 23.6235 27.5 22.9754 27.5H16.4595V4.61915H19.7174C19.8246 4.61857 19.9309 4.63781 20.0301 4.67577C20.1294 4.71372 20.2196 4.76965 20.2957 4.84033L25.1827 9.4165C25.2582 9.48776 25.3179 9.57228 25.3584 9.66521C25.399 9.75813 25.4195 9.85763 25.4189 9.95801Z" fill="#8AA5C6"/>
<path d="M20.5688 4.74193C20.4956 4.66462 20.4087 4.60345 20.3132 4.56194C20.2177 4.52042 20.1154 4.49938 20.0122 4.50001H19.2283V10.1392C19.2303 10.4129 19.3334 10.6747 19.5153 10.8682C19.6971 11.0617 19.9432 11.1714 20.2004 11.1736H25.4999V10.3394C25.5005 10.2296 25.4807 10.1208 25.4417 10.0191C25.4027 9.9175 25.3452 9.82506 25.2725 9.74711L20.5688 4.74193Z" fill="#ABC1DC"/>
<path d="M19.7819 12.6785L17.5324 10.2404C17.4627 10.1642 17.3798 10.1038 17.2884 10.0625C17.197 10.0212 17.099 10 17 10C16.901 10 16.803 10.0212 16.7116 10.0625C16.6202 10.1038 16.5373 10.1642 16.4676 10.2404L14.2181 12.6785C14.0784 12.8308 14 13.0368 14 13.2515C14 13.4662 14.0784 13.6722 14.2181 13.8245C14.2878 13.9006 14.3707 13.9611 14.4621 14.0024C14.5534 14.0436 14.6515 14.0649 14.7504 14.0649C14.8494 14.0649 14.9474 14.0436 15.0388 14.0024C15.1302 13.9611 15.2131 13.9006 15.2828 13.8245L16.2501 12.7761V22.1873C16.2501 22.4028 16.3292 22.6095 16.4698 22.762C16.6104 22.9144 16.8011 23 17 23C17.1989 23 17.3896 22.9144 17.5302 22.762C17.6708 22.6095 17.7499 22.4028 17.7499 22.1873V12.7761L18.7172 13.8245C18.7869 13.9006 18.8698 13.9611 18.9612 14.0024C19.0526 14.0436 19.1506 14.0649 19.2496 14.0649C19.3485 14.0649 19.4466 14.0436 19.5379 14.0024C19.6293 13.9611 19.7122 13.9006 19.7819 13.8245C19.9216 13.6722 20 13.4662 20 13.2515C20 13.0368 19.9216 12.8308 19.7819 12.6785Z" fill="#EEF5FD"/>
<path d="M20.5688 4.74193C20.4956 4.66462 20.4087 4.60345 20.3132 4.56194C20.2177 4.52042 20.1154 4.49938 20.0122 4.50001H19.2283V10.1392C19.2303 10.4129 19.3334 10.6747 19.5153 10.8682C19.6971 11.0617 19.9432 11.1714 20.2004 11.1736H25.4999V10.3394C25.5005 10.2296 25.4807 10.1208 25.4417 10.0191C25.4027 9.9175 25.3452 9.82506 25.2725 9.74711L20.5688 4.74193Z" fill="#2E4053"/>
<path d="M19.7819 13.8269C19.7122 13.903 19.6293 13.9635 19.5379 14.0047C19.4466 14.046 19.3485 14.0672 19.2496 14.0672C19.1506 14.0672 19.0526 14.046 18.9612 14.0047C18.8698 13.9635 18.7869 13.903 18.7172 13.8269L17.7499 12.7787V22.1875C17.7499 22.403 17.6708 22.6097 17.5302 22.762C17.3896 22.9144 17.1989 23 17 23V10C17.0992 10.0004 17.1974 10.0222 17.2887 10.0641C17.3801 10.1059 17.4629 10.167 17.5324 10.2437L19.7819 12.6812C19.9216 12.8335 20 13.0394 20 13.2541C20 13.4687 19.9216 13.6746 19.7819 13.8269Z" fill="#D7E2F2"/>
</svg>
